<?xml version="1.0" encoding="UTF-8"?>
<svg version="1.1" xmlns="http://www.w3.org/2000/svg" width="810" height="810">
<path d="M0 0 C267.3 0 534.6 0 810 0 C810 267.3 810 534.6 810 810 C542.7 810 275.4 810 0 810 C0 542.7 0 275.4 0 0 Z " fill="#FEFEFE" transform="translate(0,0)"/>
<path d="M0 0 C0.76231934 0.01401855 1.52463867 0.02803711 2.31005859 0.04248047 C15.33695198 0.34412971 28.20301731 2.69572016 41 5 C42.77564331 5.31420898 42.77564331 5.31420898 44.5871582 5.63476562 C53.67402219 7.33437314 62.31117587 9.78899152 71.0625 12.75 C72.30837891 13.15476562 73.55425781 13.55953125 74.83789062 13.9765625 C82.61679697 16.57896026 89.79609001 19.70309644 97.04150391 23.50073242 C99.46067363 24.7266873 101.75024565 25.70433019 104.3125 26.5625 C108.1718033 28.06697417 111.15565255 29.92426281 114.53515625 32.28125 C117.21306466 34.14857124 119.94791734 35.9120467 122.6875 37.6875 C132.96877389 44.57634344 142.39014152 52.24954363 151.4375 60.6875 C152.08750977 61.29279541 152.73751953 61.89809082 153.40722656 62.52172852 C160.09314386 68.85995751 165.96897526 75.80338686 171.625 83.0625 C172.07617188 83.63548828 172.52734375 84.20847656 172.9921875 84.79882812 C173.88987385 85.94544187 174.78098537 87.09723727 175.66503906 88.25439453 C176.59030066 89.46427391 177.53091451 90.66250721 178.48339844 91.85107422 C182.06024124 96.48319673 182.06024124 96.48319673 181.75708008 99.08398438 C180.62463948 101.9499611 178.72592482 103.17756237 176.3125 105.0625 C175.32636719 105.84109375 174.34023438 106.6196875 173.32421875 107.421875 C172.78974121 107.83630859 172.25526367 108.25074219 171.70458984 108.67773438 C169.90625497 110.07271886 168.11837763 111.48032684 166.33203125 112.890625 C163.40822489 115.1971621 160.47874716 117.49616427 157.54003906 119.78369141 C156.07710308 120.9391047 154.64303911 122.13080074 153.2109375 123.32421875 C151 125 151 125 149 125 C149 125.66 149 126.32 149 127 C147.1015625 128.65625 147.1015625 128.65625 144.625 130.5 C142.27095638 132.26366443 140.0808095 133.9191905 138 136 C136.11328125 135.96875 136.11328125 135.96875 134 135 C132.10546875 132.59375 132.10546875 132.59375 130.1875 129.5 C112.45203238 101.82093381 88.82318332 80.78510303 59 67 C58.29915283 66.6685498 57.59830566 66.33709961 56.8762207 65.99560547 C51.35323221 63.44541449 45.77632182 61.56365696 39.9375 59.875 C39.09123047 59.62363281 38.24496094 59.37226563 37.37304688 59.11328125 C34.92009706 58.39082417 32.46223484 57.69008249 30 57 C29.01990967 56.71938721 29.01990967 56.71938721 28.02001953 56.43310547 C9.97124118 51.55392371 -9.44734624 51.47072535 -28 52 C-29.39192679 52.01955215 -30.78385384 52.03908555 -32.17578125 52.05859375 C-57.75831967 52.93525395 -83.71660429 60.51717185 -106 73 C-106.65226563 73.36383789 -107.30453125 73.72767578 -107.9765625 74.10253906 C-119.14841699 80.40587461 -128.77804757 87.79390132 -138.1875 96.53125 C-140 98 -140 98 -142 98 C-142.495 99.485 -142.495 99.485 -143 101 C-143.66 101 -144.32 101 -145 101 C-145.495 102.485 -145.495 102.485 -146 104 C-147.12796895 105.16214982 -148.26240712 106.31860633 -149.42578125 107.4453125 C-166.58892065 124.39550973 -178.53076605 146.62202411 -187 169 C-187.37463379 169.98129883 -187.37463379 169.98129883 -187.75683594 170.98242188 C-191.39171214 180.67206413 -193.58756543 190.5334786 -195.54492188 200.67041016 C-195.85863512 202.27633924 -196.18353651 203.8801095 -196.51757812 205.48193359 C-202.23424712 233.0080136 -202.02387828 263.3846014 -197 291 C-196.77521973 292.26070313 -196.77521973 292.26070313 -196.54589844 293.546875 C-193.88264846 308.11276022 -190.00036446 322.43143392 -184 336 C-183.73348633 336.60924316 -183.46697266 337.21848633 -183.19238281 337.84619141 C-178.62781611 348.19665482 -173.42139138 357.69182382 -167 367 C-166.36449219 367.94230469 -165.72898437 368.88460938 -165.07421875 369.85546875 C-160.14355424 376.92990043 -154.49383237 383.18935204 -148.53369141 389.39453125 C-147.08177848 390.91439426 -145.65507736 392.45459273 -144.23046875 394 C-128.31773795 410.93854266 -107.72718184 424.14284385 -85.7734375 431.69921875 C-83.38433144 432.52279258 -81.0109597 433.39492124 -78.6640625 434.33203125 C-71.53707956 437.13373119 -64.51866256 438.86002745 -57 440.25 C-56.12263184 440.41322754 -55.24526367 440.57645508 -54.34130859 440.74462891 C-41.43329803 442.97473413 -28.38059505 443.23430083 -15.3125 443.25 C-14.56876129 443.25167175 -13.82502258 443.25334351 -13.05874634 443.25506592 C-2.80923492 443.25644123 7.12298234 442.79812689 17.1953125 440.765625 C20.54770021 440.09101721 23.79031372 439.7103067 27.1875 439.375 C62.1692119 434.00696237 97.76892247 409.71620666 119 382 C119.75023437 381.05382812 120.50046875 380.10765625 121.2734375 379.1328125 C129.70395742 368.28535171 136.12200622 356.85859845 141 344 C141.46792969 342.78054688 141.93585938 341.56109375 142.41796875 340.3046875 C144.24150731 335.41001713 145.90689168 330.47411548 147.5 325.5 C147.79519531 324.64019531 148.09039063 323.78039062 148.39453125 322.89453125 C151.97504235 311.58516361 152.46559257 301.27525944 154 289 C133.54 289 113.08 289 92 289 C92.82632661 285.69469358 93.73542247 283.27633635 95.1875 280.25 C101.33068987 266.90444959 105.57420995 253.01500181 110 239 C144.32 239 178.64 239 214 239 C214 304.71799375 214 304.71799375 205.58935547 332.03125 C205.00917722 333.96934336 204.4950048 335.9126001 204.00390625 337.875 C200.92246709 350.14961243 197.20420677 362.44126892 191.2265625 373.64453125 C189.32764374 377.29118097 187.73867059 381.07272923 186.11328125 384.84765625 C185 387 185 387 183 388 C182.05013714 389.62445211 182.05013714 389.62445211 181.1875 391.5859375 C179.12417419 395.86296066 176.70168028 399.72605651 174 403.625 C173.52796143 404.30941162 173.05592285 404.99382324 172.56958008 405.69897461 C167.93778971 412.29203515 162.78826889 418.37400798 157.42822266 424.38085938 C155.88556176 426.1297358 154.38277636 427.90911124 152.87890625 429.69140625 C150.80286986 432.1190971 148.70599075 434.32109623 146.25 436.375 C144.06024632 438.22723526 141.91204024 440.08321373 139.828125 442.0546875 C121.13301695 459.6832961 96.84426883 473.17187747 72.54467773 481.15014648 C70.58135654 481.80584264 68.62669065 482.48749204 66.67602539 483.17993164 C58.31707906 486.09388407 50.01916385 488.26771183 41.29516602 489.83081055 C39.32761904 490.18478002 37.36395025 490.56008839 35.40039062 490.93554688 C16.81007799 494.41897732 -1.67516183 495.38078529 -20.5625 495.3125 C-21.61249176 495.31067719 -22.66248352 495.30885437 -23.74429321 495.30697632 C-60.42249282 495.19999199 -98.4801822 490.42751927 -131.203125 472.5078125 C-134.08150357 470.90178201 -134.08150357 470.90178201 -137.5625 469.4765625 C-142.33981118 467.4244902 -146.59444877 464.74295701 -151 462 C-151.86753906 461.4740625 -152.73507813 460.948125 -153.62890625 460.40625 C-174.88173908 447.28950892 -194.83911271 429.85236706 -210 410 C-210.48049805 409.37416016 -210.96099609 408.74832031 -211.45605469 408.10351562 C-224.92673658 390.42796668 -235.46732048 371.49865256 -244 351 C-244.28568848 350.32727051 -244.57137695 349.65454102 -244.86572266 348.96142578 C-256.05029786 322.36519361 -261.13752174 291.82431783 -261.16796875 263.0625 C-261.17129715 261.94294922 -261.17462555 260.82339844 -261.17805481 259.66992188 C-261.18309225 257.31006273 -261.18546413 254.95019654 -261.18530273 252.59033203 C-261.18747677 249.03796172 -261.20563281 245.48590878 -261.22460938 241.93359375 C-261.2566913 229.13990313 -260.84457657 216.66515034 -259 204 C-258.85925049 202.99163086 -258.71850098 201.98326172 -258.57348633 200.94433594 C-255.55169054 180.65063065 -249.62700254 161.01349075 -242 142 C-241.63777344 141.030625 -241.27554688 140.06125 -240.90234375 139.0625 C-234.82710281 123.38445887 -225.75471948 108.64560275 -216 95 C-215.23429687 93.9275 -214.46859375 92.855 -213.6796875 91.75 C-206.82168928 82.51546774 -198.98869549 74.25828026 -191 66 C-190.51466797 65.49275391 -190.02933594 64.98550781 -189.52929688 64.46289062 C-157.97635673 31.51585887 -114.52566996 11.67271519 -70 4 C-69.09548096 3.83209961 -68.19096191 3.66419922 -67.2590332 3.49121094 C-59.34076368 2.07104713 -51.46285489 1.3694387 -43.4375 0.875 C-42.77168915 0.83297455 -42.1058783 0.7909491 -41.41989136 0.74765015 C-27.61060759 -0.11103362 -13.83412614 -0.30656675 0 0 Z " fill="#29296A" transform="translate(401,81)"/>
<path d="M0 0 C4.40138394 3.79776557 8.11215461 7.83159951 11.734375 12.359375 C12.51167969 13.10832031 13.28898438 13.85726562 14.08984375 14.62890625 C16.80896269 17.43638651 18.89706117 20.28774103 21.046875 23.546875 C22.09294922 25.11501953 22.09294922 25.11501953 23.16015625 26.71484375 C24.734375 29.359375 24.734375 29.359375 24.734375 31.359375 C25.394375 31.359375 26.054375 31.359375 26.734375 31.359375 C27.74741262 33.08093596 28.74432348 34.81199306 29.734375 36.546875 C30.29125 37.50980469 30.848125 38.47273438 31.421875 39.46484375 C32.76589433 42.42888638 32.91592099 44.16530016 32.734375 47.359375 C33.064375 47.689375 33.394375 48.019375 33.734375 48.359375 C33.77501332 50.02554615 33.777096 51.69325595 33.734375 53.359375 C34.394375 53.359375 35.054375 53.359375 35.734375 53.359375 C35.92773438 54.01164062 36.12109375 54.66390625 36.3203125 55.3359375 C36.58070313 56.20992188 36.84109375 57.08390625 37.109375 57.984375 C37.36460937 58.84289062 37.61984375 59.70140625 37.8828125 60.5859375 C38.44839444 62.42797042 39.07890548 64.25134863 39.77319336 66.04882812 C40.86216417 69.79951246 41.00524098 73.235601 40.96484375 77.1015625 C40.96438553 77.82876495 40.96392731 78.55596741 40.9634552 79.3052063 C40.96044839 80.83646282 40.95260948 82.36771671 40.94018555 83.89892578 C40.92198386 86.2204902 40.91967589 88.541653 40.91992188 90.86328125 C40.9150032 92.35937839 40.90917337 93.85547286 40.90234375 95.3515625 C40.90123093 96.03515839 40.9001181 96.71875427 40.89897156 97.42306519 C40.84057742 103.47070729 40.40074031 109.5209247 38.734375 115.359375 C38.50878906 116.24753906 38.28320312 117.13570312 38.05078125 118.05078125 C37.80199219 118.99824219 37.55320312 119.94570313 37.296875 120.921875 C37.05066406 121.87191406 36.80445313 122.82195312 36.55078125 123.80078125 C35.734375 126.359375 35.734375 126.359375 33.734375 129.359375 C33.36975985 131.01947882 33.03972187 132.68735461 32.734375 134.359375 C30.76904712 140.97790565 28.73368656 146.49162427 23.734375 151.359375 C23.074375 151.359375 22.414375 151.359375 21.734375 151.359375 C21.610625 152.08125 21.486875 152.803125 21.359375 153.546875 C20.72195325 156.41527286 20.13421591 158.76966931 18.734375 161.359375 C17.07364651 162.04069951 15.406608 162.70679627 13.734375 163.359375 C12.10687463 165.68260953 12.10687463 165.68260953 10.734375 168.359375 C6.42310138 174.42709342 0.42547804 180.01382348 -6.265625 183.359375 C-6.925625 183.359375 -7.585625 183.359375 -8.265625 183.359375 C-8.265625 184.019375 -8.265625 184.679375 -8.265625 185.359375 C-8.925625 185.359375 -9.585625 185.359375 -10.265625 185.359375 C-10.265625 186.019375 -10.265625 186.679375 -10.265625 187.359375 C-11.00167969 187.75769531 -11.73773438 188.15601563 -12.49609375 188.56640625 C-13.47191406 189.09621094 -14.44773437 189.62601563 -15.453125 190.171875 C-16.89751953 190.95498047 -16.89751953 190.95498047 -18.37109375 191.75390625 C-20.15716139 192.74455915 -21.92254601 193.775066 -23.6484375 194.8671875 C-26.95327208 196.75143647 -30.39630666 198.10308776 -33.953125 199.421875 C-34.66355957 199.68572998 -35.37399414 199.94958496 -36.10595703 200.22143555 C-56.04493656 207.44869239 -82.83122596 209.42876122 -102.265625 200.359375 C-107.66825613 197.8184115 -112.98573695 195.14580174 -118.265625 192.359375 C-118.925625 192.029375 -119.585625 191.699375 -120.265625 191.359375 C-120.24897041 192.42813873 -120.24897041 192.42813873 -120.23197937 193.51849365 C-120.13115139 200.28403443 -120.05534565 207.0494607 -120.00656414 213.8155632 C-119.98064001 217.29289961 -119.94556571 220.76960733 -119.88842773 224.24658203 C-119.82292812 228.25819393 -119.79930317 232.26916159 -119.77734375 236.28125 C-119.75153732 237.50986755 -119.7257309 238.73848511 -119.69914246 240.0043335 C-119.69541207 251.66322645 -123.00613617 261.03534135 -131.1484375 269.515625 C-138.08197837 275.55369011 -146.00923911 276.86137004 -155 276.76171875 C-163.45413089 275.72012128 -170.65365851 271.14552502 -175.8671875 264.5078125 C-180.68000774 257.11381493 -182.38991275 250.19241822 -182.39260864 241.41622925 C-182.39416863 240.729598 -182.39572862 240.04296675 -182.39733589 239.33552849 C-182.40131539 237.04120922 -182.39816798 234.74695645 -182.39501953 232.45263672 C-182.396375 230.80474306 -182.39815575 229.1568497 -182.40032959 227.50895691 C-182.40488873 223.03550903 -182.40312002 218.56208421 -182.3999505 214.08863592 C-182.39741653 209.39992047 -182.39976758 204.71120698 -182.40133667 200.02249146 C-182.40315641 192.14226935 -182.4007583 184.26205662 -182.39599609 176.38183594 C-182.39056518 167.29050691 -182.39230839 158.19920036 -182.3978225 149.10787189 C-182.40237274 141.29110138 -182.4029945 133.4743376 -182.40038383 125.65756619 C-182.3988301 120.99427048 -182.39860219 116.3309853 -182.40192032 111.66769028 C-182.40482642 107.27642845 -182.40277335 102.8851953 -182.39702606 98.49393654 C-182.39571259 96.88922104 -182.39606832 95.28450309 -182.39828873 93.67978859 C-182.41258086 82.29345979 -182.23468698 71.10050076 -179.515625 59.984375 C-179.33862061 59.25742432 -179.16161621 58.53047363 -178.97924805 57.78149414 C-174.03697623 38.20803397 -163.82229806 19.46327441 -149.265625 5.359375 C-148.54503906 4.65296875 -147.82445312 3.9465625 -147.08203125 3.21875 C-105.77900198 -35.43573147 -43.39401824 -34.40043933 0 0 Z " fill="#5F4A85" transform="translate(461.265625,204.640625)"/>
<path d="M0 0 C0.82628906 0.18304688 1.65257812 0.36609375 2.50390625 0.5546875 C15.80869009 3.92773129 29.44194796 14.53741923 37 26 C37.65234375 28.19921875 37.65234375 28.19921875 38 30 C38.66 30 39.32 30 40 30 C41.0768555 32.31523933 42.05141749 34.6305282 43 37 C43.53947266 38.26263672 43.53947266 38.26263672 44.08984375 39.55078125 C49.45695483 53.97131101 49.20713699 71.90209083 43 86 C42.43925781 87.32837891 42.43925781 87.32837891 41.8671875 88.68359375 C39.06004082 94.79053207 35.37497116 99.92207364 31 105 C30.46246094 105.65613281 29.92492187 106.31226563 29.37109375 106.98828125 C25.10242607 111.75352772 20.11111876 115.07208649 14.6875 118.375 C14.00059082 118.80417725 13.31368164 119.23335449 12.60595703 119.67553711 C3.2147801 125.15938011 -6.92365952 125.34499493 -17.5625 125.3125 C-18.62146484 125.32861328 -19.68042969 125.34472656 -20.77148438 125.36132812 C-36.21787967 125.37084531 -49.59769778 119.0491903 -60.72265625 108.375 C-75.28441762 93.18880632 -80.53795904 76.92569939 -80.2109375 56.25390625 C-79.70065554 42.06995765 -73.22984369 29.53383927 -64 19 C-63.46761719 18.38511719 -62.93523437 17.77023438 -62.38671875 17.13671875 C-56.29028728 10.57468869 -48.20600417 5.51685893 -40 2 C-38.79730469 1.4740625 -38.79730469 1.4740625 -37.5703125 0.9375 C-25.55260288 -3.7523379 -12.38486356 -3.09132455 0 0 Z " fill="#2D2B62" transform="translate(410,236)"/>
<path d="M0 0 C0.82628906 0.18304688 1.65257812 0.36609375 2.50390625 0.5546875 C15.80869009 3.92773129 29.44194796 14.53741923 37 26 C37.65234375 28.19921875 37.65234375 28.19921875 38 30 C38.66 30 39.32 30 40 30 C41.0768555 32.31523933 42.05141749 34.6305282 43 37 C43.53947266 38.26263672 43.53947266 38.26263672 44.08984375 39.55078125 C49.45695483 53.97131101 49.20713699 71.90209083 43 86 C42.43925781 87.32837891 42.43925781 87.32837891 41.8671875 88.68359375 C39.06004082 94.79053207 35.37497116 99.92207364 31 105 C30.46246094 105.65613281 29.92492187 106.31226563 29.37109375 106.98828125 C25.10242607 111.75352772 20.11111876 115.07208649 14.6875 118.375 C14.00059082 118.80417725 13.31368164 119.23335449 12.60595703 119.67553711 C3.2147801 125.15938011 -6.92365952 125.34499493 -17.5625 125.3125 C-18.62146484 125.32861328 -19.68042969 125.34472656 -20.77148438 125.36132812 C-36.21787967 125.37084531 -49.59769778 119.0491903 -60.72265625 108.375 C-75.28441762 93.18880632 -80.53795904 76.92569939 -80.2109375 56.25390625 C-79.70065554 42.06995765 -73.22984369 29.53383927 -64 19 C-63.46761719 18.38511719 -62.93523437 17.77023438 -62.38671875 17.13671875 C-56.29028728 10.57468869 -48.20600417 5.51685893 -40 2 C-38.79730469 1.4740625 -38.79730469 1.4740625 -37.5703125 0.9375 C-25.55260288 -3.7523379 -12.38486356 -3.09132455 0 0 Z M-60.78515625 27.00390625 C-71.9143395 41.09328147 -73.56512928 56.58518126 -72 74 C-71.12658565 78.70267461 -69.28584149 82.81330085 -67 87 C-66.53078125 87.8971875 -66.0615625 88.794375 -65.578125 89.71875 C-58.1041211 103.05944513 -47.32298476 111.67563393 -33 117 C-29.57815764 117.80818279 -26.4298703 118.11920166 -22.91796875 118.09765625 C-21.98662109 118.09443359 -21.05527344 118.09121094 -20.09570312 118.08789062 C-19.13599609 118.07951172 -18.17628906 118.07113281 -17.1875 118.0625 C-16.20845703 118.05798828 -15.22941406 118.05347656 -14.22070312 118.04882812 C-11.81373889 118.03708684 -9.40690143 118.02066419 -7 118 C-6.505 116.02 -6.505 116.02 -6 114 C-6.66 114 -7.32 114 -8 114 C-8 113.34 -8 112.68 -8 112 C-9.65 112 -11.3 112 -13 112 C-13 104.41 -13 96.82 -13 89 C-7.72 89.33 -2.44 89.66 3 90 C3.33 88.35 3.66 86.7 4 85 C1.15404952 82.15404952 -1.80798161 82.54466313 -5.625 82.375 C-8.05875 82.25125 -10.4925 82.1275 -13 82 C-13 76.39 -13 70.78 -13 65 C-7.06 65 -1.12 65 5 65 C5.33 63.35 5.66 61.7 6 60 C0.06 59.67 -5.88 59.34 -12 59 C-12 53.72 -12 48.44 -12 43 C-10.35 42.34 -8.7 41.68 -7 41 C-7 40.01 -7 39.02 -7 38 C-7.66 38 -8.32 38 -9 38 C-9 37.34 -9 36.68 -9 36 C-9.99 35.67 -10.98 35.34 -12 35 C-12.33 27.74 -12.66 20.48 -13 13 C-4 15 -4 15 -1.9375 17.625 C-1.628125 18.40875 -1.31875 19.1925 -1 20 C0.98 19.34 2.96 18.68 5 18 C6.65 22.29 8.3 26.58 10 31 C12.31 30.67 14.62 30.34 17 30 C16.67 32.31 16.34 34.62 16 37 C18.97 36.01 21.94 35.02 25 34 C25.27714844 34.70511719 25.55429687 35.41023438 25.83984375 36.13671875 C26.61416115 38.04774452 27.41912905 39.94663104 28.25390625 41.83203125 C28.68574219 42.81558594 29.11757813 43.79914063 29.5625 44.8125 C30.21412109 46.27623047 30.21412109 46.27623047 30.87890625 47.76953125 C32 51 32 51 33 59 C26.73 59 20.46 59 14 59 C14 59.33 14 59.66 14 60 C16.79134852 60.19425873 19.58283687 60.38069517 22.375 60.5625 C23.56609375 60.64661133 23.56609375 60.64661133 24.78125 60.73242188 C29.01590885 61.15352804 29.01590885 61.15352804 33 60 C32.67 60.99 32.34 61.98 32 63 C32.33 63.66 32.66 64.32 33 65 C26.73 65 20.46 65 14 65 C14 65.33 14 65.66 14 66 C20.27 66 26.54 66 33 66 C31.21653338 73.97866646 29.33192599 81.96062026 25 89 C23.515 89.495 23.515 89.495 22 90 C22.33 90.66 22.66 91.32 23 92 C26.71599191 92.20086443 27.77208445 92.1519437 31 90 C31.33 90.99 31.66 91.98 32 93 C32.96624888 90.83657484 33.9229943 88.66968741 34.875 86.5 C35.40867187 85.2934375 35.94234375 84.086875 36.4921875 82.84375 C42.30152379 68.7050374 41.34564121 53.13450426 36 39 C29.21369114 24.57069477 17.9794328 14.53231008 3 9 C2.36046387 8.74919678 1.72092773 8.49839355 1.06201172 8.23999023 C-4.63338768 6.14053657 -9.69974664 5.48827099 -15.75 5.5625 C-16.62253418 5.57007324 -17.49506836 5.57764648 -18.39404297 5.58544922 C-35.72889484 6.02386065 -49.40695615 14.23144093 -60.78515625 27.00390625 Z " fill="#404487" transform="translate(410,236)"/>
<path d="M0 0 C0.82628906 0.18304688 1.65257812 0.36609375 2.50390625 0.5546875 C15.80869009 3.92773129 29.44194796 14.53741923 37 26 C37.65234375 28.19921875 37.65234375 28.19921875 38 30 C38.66 30 39.32 30 40 30 C41.0768555 32.31523933 42.05141749 34.6305282 43 37 C43.53947266 38.26263672 43.53947266 38.26263672 44.08984375 39.55078125 C49.45695483 53.97131101 49.20713699 71.90209083 43 86 C42.43925781 87.32837891 42.43925781 87.32837891 41.8671875 88.68359375 C39.06004082 94.79053207 35.37497116 99.92207364 31 105 C30.46246094 105.65613281 29.92492187 106.31226563 29.37109375 106.98828125 C25.10242607 111.75352772 20.11111876 115.07208649 14.6875 118.375 C14.00059082 118.80417725 13.31368164 119.23335449 12.60595703 119.67553711 C3.2147801 125.15938011 -6.92365952 125.34499493 -17.5625 125.3125 C-18.62146484 125.32861328 -19.68042969 125.34472656 -20.77148438 125.36132812 C-36.21787967 125.37084531 -49.59769778 119.0491903 -60.72265625 108.375 C-75.28441762 93.18880632 -80.53795904 76.92569939 -80.2109375 56.25390625 C-79.70065554 42.06995765 -73.22984369 29.53383927 -64 19 C-63.46761719 18.38511719 -62.93523437 17.77023438 -62.38671875 17.13671875 C-56.29028728 10.57468869 -48.20600417 5.51685893 -40 2 C-38.79730469 1.4740625 -38.79730469 1.4740625 -37.5703125 0.9375 C-25.55260288 -3.7523379 -12.38486356 -3.09132455 0 0 Z M-60.78515625 27.00390625 C-71.9143395 41.09328147 -73.56512928 56.58518126 -72 74 C-71.12658565 78.70267461 -69.28584149 82.81330085 -67 87 C-66.53078125 87.8971875 -66.0615625 88.794375 -65.578125 89.71875 C-58.1041211 103.05944513 -47.32298476 111.67563393 -33 117 C-19.20125452 120.18963088 -3.67187708 119.36124855 9 113 C10.34384766 112.34837891 10.34384766 112.34837891 11.71484375 111.68359375 C25.44864345 104.25591471 33.99462723 92.04273251 38.50878906 77.37866211 C42.66424518 62.17443575 40.2709658 46.24930174 32.6875 32.5 C25.67090621 21.39534839 15.31171754 13.54705061 3 9 C2.36046387 8.74919678 1.72092773 8.49839355 1.06201172 8.23999023 C-4.63338768 6.14053657 -9.69974664 5.48827099 -15.75 5.5625 C-16.62253418 5.57007324 -17.49506836 5.57764648 -18.39404297 5.58544922 C-35.72889484 6.02386065 -49.40695615 14.23144093 -60.78515625 27.00390625 Z " fill="#F3F2F5" transform="translate(410,236)"/>
<path d="M0 0 C1.98 0 3.96 0 6 0 C6.33 8.91 6.66 17.82 7 27 C9.97 24.525 9.97 24.525 13 22 C17.46250847 20.7843251 21.74931565 21.55999575 25.8125 23.6875 C30.19237521 26.86505653 32.95346825 29.6499732 34 35 C34.74970228 42.11602653 33.75738029 47.85498675 30 54 C26.47277335 57.9394999 22.83941106 59.11867402 17.625 59.5 C12.86090567 59.43615954 10.5358713 57.56575148 7.21484375 54.3125 C6.81394531 53.879375 6.41304687 53.44625 6 53 C5.67 54.32 5.34 55.64 5 57 C3.35 57 1.7 57 0 57 C0 38.19 0 19.38 0 0 Z " fill="#434992" transform="translate(603,613)"/>
<path d="M0 0 C1.85093981 1.22652638 3.54835855 2.56398355 5.12109375 4.13671875 C5.45109375 2.81671875 5.78109375 1.49671875 6.12109375 0.13671875 C8.10109375 0.13671875 10.08109375 0.13671875 12.12109375 0.13671875 C12.12109375 11.68671875 12.12109375 23.23671875 12.12109375 35.13671875 C10.14109375 35.13671875 8.16109375 35.13671875 6.12109375 35.13671875 C5.79109375 33.81671875 5.46109375 32.49671875 5.12109375 31.13671875 C4.35796875 31.77609375 3.59484375 32.41546875 2.80859375 33.07421875 C-1.13544465 36.10103892 -4.60933551 36.65277804 -9.45703125 36.62109375 C-14.55465722 35.60156856 -18.20703845 31.55224204 -21.08203125 27.3984375 C-22.26682131 24.03572453 -22.20745469 20.72024577 -22.19140625 17.19921875 C-22.20751953 16.49603516 -22.22363281 15.79285156 -22.24023438 15.06835938 C-22.24442118 10.60103703 -21.70436873 7.64964169 -18.87890625 4.13671875 C-18.21890625 4.13671875 -17.55890625 4.13671875 -16.87890625 4.13671875 C-16.54890625 3.14671875 -16.21890625 2.15671875 -15.87890625 1.13671875 C-11.31961893 -1.5703581 -4.8833722 -2.24371155 0 0 Z " fill="#2A2658" transform="translate(665.87890625,635.86328125)"/>
<path d="M0 0 C4.38118201 2.48326106 7.42338864 5.84677729 9.6875 10.375 C10.60462937 17.81651805 10.19498176 23.50321858 5.515625 29.52734375 C1.18658586 33.90263331 -3.20292662 35.56267955 -9.3125 35.9375 C-14.66295292 35.66627888 -18.48589901 34.15917748 -22.3125 30.375 C-25.97244498 25.26354399 -28.21532511 19.88813193 -27.7890625 13.5390625 C-26.53428715 7.84114822 -23.3014267 3.7518923 -18.625 0.375 C-12.58327884 -2.98151176 -6.24319004 -2.78650855 0 0 Z " fill="#4A4F95" transform="translate(438.3125,636.625)"/>
<path d="M0 0 C5.60629533 3.11000111 9.04332678 5.84153041 11.265625 11.90234375 C12.07008517 17.85534902 11.80680028 22.87615948 8.265625 27.90234375 C3.63420947 32.55613327 -0.70810904 36.1564098 -7.484375 36.33984375 C-13.02945484 36.20101259 -16.64424993 34.62063926 -20.734375 30.90234375 C-24.61462306 26.72942492 -26.04875913 22.96956375 -26.234375 17.27734375 C-25.96336811 12.11394939 -25.10378237 8.27838812 -21.33984375 4.50390625 C-14.87564651 -1.15840323 -8.2472322 -3.31067464 0 0 Z " fill="#2F2C60" transform="translate(582.734375,636.09765625)"/>
<path d="M0 0 C2.43359375 1.60546875 2.43359375 1.60546875 4.4375 3.1875 C5.11683594 3.71730469 5.79617188 4.24710938 6.49609375 4.79296875 C6.99238281 5.19128906 7.48867188 5.58960938 8 6 C7.42655063 8.86724686 7.1385485 9.8614515 5 12 C4.01 12 3.02 12 2 12 C1.401875 11.236875 0.80375 10.47375 0.1875 9.6875 C-2.48649665 6.40230412 -3.95845056 5.34718315 -8 4 C-14.67271387 3.37948011 -21.41407773 2.81055829 -27 7 C-33.35350624 13.37135317 -34.5068269 18.74631664 -34.49755859 27.4909668 C-34.33469646 32.96793846 -33.53789884 36.97903474 -29.97265625 41.328125 C-25.35319489 45.24323285 -20.3008323 46.72231334 -14.375 47.4375 C-7.31726337 46.52260821 -2.88078448 44.56963542 1.7734375 39.109375 C3.49819997 36.34211824 3.49819997 36.34211824 5 30 C0.05 30 -4.9 30 -10 30 C-10 28.02 -10 26.04 -10 24 C-2.74 24 4.52 24 12 24 C12.34181925 34.2545776 11.43224298 39.78189138 4.53125 47.4609375 C-0.70805379 52.72697243 -7.63136303 54.04443973 -14.8125 54.375 C-22.28839212 54.17947667 -29.33610678 51.93779771 -34.9375 46.875 C-38.59553858 42.82220905 -40.33133939 38.13157994 -42 33 C-42.495 31.515 -42.495 31.515 -43 30 C-44.02385257 21.00352494 -41.91016278 12.37417625 -36.375 5.125 C-26.76621346 -4.74541191 -12.10013092 -6.13628967 0 0 Z " fill="#2E2B60" transform="translate(393,618)"/>
<path d="M0 0 C1.97961192 1.58368954 3.38878303 3.0128324 5 5 C5 5.66 5 6.32 5 7 C3 8.625 3 8.625 1 10 C-2.44703434 8.46798474 -5.06586771 6.34730584 -8 4 C-13.15672197 0.77561952 -19.14837431 1.4491746 -25 2 C-30.42243908 3.43762175 -34.02694855 7.52838988 -36.89453125 12.171875 C-39.40363098 18.59091458 -39.07514524 25.92576541 -37.33203125 32.53125 C-35.1830014 37.4111431 -31.48464493 41.15775793 -27 44 C-20.68001174 46.05210774 -14.74711337 45.66730397 -8.6875 43 C-3.77058012 40.32012597 -1.66668755 37.27260276 0 32 C0.33 30.68 0.66 29.36 1 28 C-3.95 28 -8.9 28 -14 28 C-14 26.02 -14 24.04 -14 22 C-6.74 22 0.52 22 8 22 C8 32.40576104 7.83810163 37.17954271 1.4609375 44.8515625 C-4.5062662 50.59252151 -11.93851279 52.10675672 -20 52.5 C-27.22340842 52.27745597 -32.70707314 49.96984724 -38.0703125 45.1328125 C-45.68641456 36.9431128 -46.8323373 29.23328508 -46.46484375 18.46484375 C-45.90147747 11.04744781 -43.08665563 5.75189872 -37.55078125 0.81640625 C-26.6234833 -7.30148176 -11.278983 -7.98204951 0 0 Z " fill="#252153" transform="translate(524,620)"/>
<path d="M0 0 C22.87341772 0 22.87341772 0 28.91015625 5.8515625 C31.26669757 10.49707406 30.55861798 15.95360838 30 21 C27.69484792 26.14226234 25.12382641 27.8912554 20 30 C15.29374016 30.37791166 10.73191686 30.13392218 6 30 C6 37.92 6 45.84 6 54 C4.02 54 2.04 54 0 54 C0 36.18 0 18.36 0 0 Z " fill="#3D438B" transform="translate(115,616)"/>
<path d="M0 0 C1.98 0 3.96 0 6 0 C6 4.62 6 9.24 6 14 C10.29 14 14.58 14 19 14 C19 9.38 19 4.76 19 0 C21.31 0 23.62 0 26 0 C26 4.62 26 9.24 26 14 C27.98 14 29.96 14 32 14 C32 15.98 32 17.96 32 20 C30.02 20 28.04 20 26 20 C26 29.57 26 39.14 26 49 C23.69 49 21.38 49 19 49 C19 39.43 19 29.86 19 20 C14.71 19.67 10.42 19.34 6 19 C6 28.9 6 38.8 6 49 C4.02 49 2.04 49 0 49 C0 39.1 0 29.2 0 19 C-1.98 19 -3.96 19 -6 19 C-6 17.68 -6 16.36 -6 15 C-4.02 15 -2.04 15 0 15 C0 10.05 0 5.1 0 0 Z " fill="#404078" transform="translate(218,622)"/>
<path d="M0 0 C12.66676698 6.19264163 21.40084948 16.40226528 26.3125 29.5 C31.72902134 47.2541533 29.57593598 63.62775858 21 80 C20.67 79.01 20.34 78.02 20 77 C18.515 77.99 18.515 77.99 17 79 C13.8125 79.125 13.8125 79.125 11 79 C11 78.34 11 77.68 11 77 C12.485 76.505 12.485 76.505 14 76 C15.64126376 73.0721039 15.64126376 73.0721039 17.0625 69.5 C17.82240234 67.72109375 17.82240234 67.72109375 18.59765625 65.90625 C20.36913669 61.22903283 20.36913669 61.22903283 22 53 C15.73 53 9.46 53 3 53 C3 52.67 3 52.34 3 52 C9.27 52 15.54 52 22 52 C21.67 51.01 21.34 50.02 21 49 C21.33 48.34 21.66 47.68 22 47 C20.515 47.495 20.515 47.495 19 48 C16.25392224 47.91232913 13.54908492 47.77043265 10.8125 47.5625 C10.06291016 47.51029297 9.31332031 47.45808594 8.54101562 47.40429688 C6.69362918 47.27486216 4.84675629 47.13813482 3 47 C3 46.67 3 46.34 3 46 C9.27 46 15.54 46 22 46 C20.97435218 38.20507656 18.99775927 32.34276764 15.2421875 25.43359375 C14 23 14 23 14 21 C9.545 22.485 9.545 22.485 5 24 C5.33 21.69 5.66 19.38 6 17 C3.69 17.33 1.38 17.66 -1 18 C-1.72697561 16.25766175 -2.43098244 14.50572655 -3.125 12.75 C-3.51945312 11.77546875 -3.91390625 10.8009375 -4.3203125 9.796875 C-5 7 -5 7 -4.3046875 4.703125 C-3 3 -3 3 0 2 C0 1.34 0 0.68 0 0 Z " fill="#414892" transform="translate(421,249)"/>
<path d="M0 0 C1.134375 0.020625 2.26875 0.04125 3.4375 0.0625 C1.64190752 4.69957131 -0.39328094 9.21891071 -2.4375 13.75 C-3.01165649 15.02472168 -3.01165649 15.02472168 -3.59741211 16.32519531 C-8.84314785 27.93904885 -14.20537164 39.49972434 -19.5625 51.0625 C-21.8725 51.0625 -24.1825 51.0625 -26.5625 51.0625 C-24.6330306 45.99881933 -22.16514138 41.23817558 -19.70703125 36.4140625 C-16.99403362 28.46951655 -21.3546043 21.4340742 -24.625 14.25 C-25.55650392 12.18239171 -26.48504896 10.11344698 -27.41015625 8.04296875 C-27.82273682 7.13442139 -28.23531738 6.22587402 -28.66040039 5.28979492 C-29.5625 3.0625 -29.5625 3.0625 -29.5625 1.0625 C-27.2525 1.0625 -24.9425 1.0625 -22.5625 1.0625 C-22.16417969 2.15949219 -21.76585937 3.25648438 -21.35546875 4.38671875 C-20.82057888 5.84124382 -20.28540775 7.29566548 -19.75 8.75 C-19.48896484 9.47123047 -19.22792969 10.19246094 -18.95898438 10.93554688 C-17.48720495 14.91480236 -15.90612642 18.494276 -13.5625 22.0625 C-13.2951001 21.43158447 -13.0277002 20.80066895 -12.75219727 20.15063477 C-11.54563 17.3076885 -10.33536648 14.46633072 -9.125 11.625 C-8.49368164 10.13516602 -8.49368164 10.13516602 -7.84960938 8.61523438 C-7.44677734 7.67099609 -7.04394531 6.72675781 -6.62890625 5.75390625 C-6.25709229 4.87935791 -5.88527832 4.00480957 -5.50219727 3.10375977 C-3.95381533 -0.25971681 -4.05938803 0.07121733 0 0 Z " fill="#37376F" transform="translate(321.5625,635.9375)"/>
<path d="M0 0 C3.12001504 1.68818449 5.39047471 3.78094941 7 7 C7.5878933 12.65282017 7.31475894 17.19931464 4 22 C0.61406337 24.9022314 -2.53603789 25.59079252 -7.00390625 25.421875 C-11.26540136 24.52120676 -13.79671464 21.58614889 -16.375 18.1875 C-17.69757596 13.55848413 -17.67987371 9.52971585 -15.75 5.1875 C-11.30308826 -0.37113967 -6.87218446 -1.19045715 0 0 Z " fill="#F7F7F8" transform="translate(580,641)"/>
<path d="M0 0 C3.75396903 2.54899132 6.37386627 5.67682795 7.56640625 10.1015625 C7.86574897 15.10348283 6.18150854 18.30257116 3 22 C0.02893058 24.40897521 -1.6745346 24.96512871 -5.5 25.375 C-10.04852977 24.88765752 -12.54656012 23.60160608 -15.609375 20.2265625 C-18.15689364 16.1476703 -17.7360313 11.63030597 -17 7 C-13.34452672 0.0139844 -7.3774089 -1.5062668 0 0 Z " fill="#F7F8F9" transform="translate(435,641)"/>
<path d="M0 0 C0.80308594 0.01417969 1.60617187 0.02835938 2.43359375 0.04296875 C3.64208984 0.05263672 3.64208984 0.05263672 4.875 0.0625 C6.87109375 0.23046875 6.87109375 0.23046875 7.87109375 1.23046875 C7.91190158 3.23005239 7.91363731 5.23092129 7.87109375 7.23046875 C6.73671875 7.20984375 5.60234375 7.18921875 4.43359375 7.16796875 C1.05533701 6.81469398 1.05533701 6.81469398 -0.12890625 8.23046875 C-0.36591864 11.08924784 -0.55109807 13.92930172 -0.69140625 16.79296875 C-0.73458984 17.59927734 -0.77777344 18.40558594 -0.82226562 19.23632812 C-0.92865887 21.2341568 -1.02931513 23.23228945 -1.12890625 25.23046875 C1.84109375 25.23046875 4.81109375 25.23046875 7.87109375 25.23046875 C7.87109375 26.55046875 7.87109375 27.87046875 7.87109375 29.23046875 C4.90109375 29.23046875 1.93109375 29.23046875 -1.12890625 29.23046875 C-1.12890625 39.13046875 -1.12890625 49.03046875 -1.12890625 59.23046875 C-3.10890625 59.23046875 -5.08890625 59.23046875 -7.12890625 59.23046875 C-7.12890625 49.33046875 -7.12890625 39.43046875 -7.12890625 29.23046875 C-9.43890625 29.23046875 -11.74890625 29.23046875 -14.12890625 29.23046875 C-14.12890625 27.58046875 -14.12890625 25.93046875 -14.12890625 24.23046875 C-11.81890625 24.23046875 -9.50890625 24.23046875 -7.12890625 24.23046875 C-7.16371094 23.06128906 -7.19851563 21.89210938 -7.234375 20.6875 C-7.26252341 19.13933734 -7.28982244 17.59115907 -7.31640625 16.04296875 C-7.35411133 14.88958008 -7.35411133 14.88958008 -7.39257812 13.71289062 C-7.45308483 9.01353639 -7.12244033 6.07929828 -4.12890625 2.23046875 C-2.12890625 0.23046875 -2.12890625 0.23046875 0 0 Z " fill="#37376E" transform="translate(283.12890625,611.76953125)"/>
<path d="M0 0 C3.62245232 2.1580567 5.39024012 4.16188256 7 8 C7.73651586 12.71027588 7.42246633 16.17015542 5.25 20.4375 C2.00625281 24.13176764 0.43932923 24.84298227 -4.4375 25.375 C-8.62750939 24.93394638 -10.093893 23.98913863 -13 21 C-15.72336303 16.53406552 -15.54401963 12.08575923 -15 7 C-11.92656212 -0.02500088 -7.08530126 -1.02108032 0 0 Z " fill="#F7F7F8" transform="translate(665,641)"/>
<path d="M0 0 C3.13180809 1.62390049 5.24339744 3.00266026 7.375 5.8125 C9.03579299 11.62527548 8.0461796 16.17854072 5.1953125 21.33203125 C3.41155125 23.821136 1.9926458 24.44322869 -1 25 C-4.5 25.4375 -4.5 25.4375 -8 25 C-10.63016161 22.8272578 -12.47336894 21.05326212 -14 18 C-14.41251687 13.07359656 -14.6526414 8.52282992 -12.6875 3.9375 C-9.01747486 -0.27623257 -5.31799671 -0.82433975 0 0 Z " fill="#F8F8F9" transform="translate(623,641)"/>
<path d="M0 0 C-0.1875 2.3125 -0.1875 2.3125 -1 5 C-1.804375 5.474375 -2.60875 5.94875 -3.4375 6.4375 C-6.78804849 8.48051737 -6.93793307 10.32969427 -8 14 C-6.87980469 13.98839844 -5.75960937 13.97679687 -4.60546875 13.96484375 C-3.13281417 13.95546378 -1.66015778 13.9463638 -0.1875 13.9375 C0.55048828 13.92912109 1.28847656 13.92074219 2.04882812 13.91210938 C5.29922068 13.89740172 7.89404895 13.96468298 11 15 C11 15.99 11 16.98 11 18 C4.73 18 -1.54 18 -8 18 C-7.66241988 24.73895527 -7.66241988 24.73895527 -4.5 28 C-1.78046786 29.97903302 0.22265377 30.31457391 3.5625 30.125 C7.97651097 29.37193394 10.19620115 27.52735985 13 24 C14.65 24.66 16.3 25.32 18 26 C16.09828512 30.43733472 13.7253161 33.19752739 9.3125 35.25 C4.11160233 36.42756174 -0.73930432 36.92483005 -5.75 34.875 C-10.33578195 31.05351504 -14.5253868 26.55408023 -15.3359375 20.484375 C-15.42643679 14.14942497 -14.93321263 9.1434319 -11 4 C-7.32655657 0.87366517 -4.85526906 -0.57120812 0 0 Z " fill="#252155" transform="translate(190,636)"/>
<path d="M0 0 C1.14829977 2.269616 2.29371978 4.54060778 3.4375 6.8125 C3.92573242 7.77639648 3.92573242 7.77639648 4.42382812 8.75976562 C7.56068662 15.00114387 8 17.53336388 8 25 C1.4 25 -5.2 25 -12 25 C-12.33 18.07 -12.66 11.14 -13 4 C-3.375 0 -3.375 0 0 0 Z " fill="#F3F3F7" transform="translate(435,270)"/>
<path d="M0 0 C2.97722547 0.70333538 5.85256543 1.58248537 8.75 2.5625 C9.54921875 2.83191406 10.3484375 3.10132813 11.171875 3.37890625 C11.77515625 3.58386719 12.3784375 3.78882813 13 4 C12.85845864 6.56280208 12.71191438 9.12515485 12.5625 11.6875 C12.52318359 12.40873047 12.48386719 13.12996094 12.44335938 13.87304688 C12.40146484 14.57880859 12.35957031 15.28457031 12.31640625 16.01171875 C12.27974854 16.65584717 12.24309082 17.29997559 12.20532227 17.96362305 C11.96660193 20.3312406 11.46668225 22.66658877 11 25 C4.73 25 -1.54 25 -8 25 C-8 15.37809946 -5.03301262 8.08877029 0 0 Z " fill="#F5F4F6" transform="translate(353,270)"/>
<path d="M0 0 C2.31 0 4.62 0 7 0 C7 19.14 7 38.28 7 58 C4.69 58 2.38 58 0 58 C0 38.86 0 19.72 0 0 Z " fill="#4A4B81" transform="translate(541,613)"/>
<path d="M0 0 C6.6 0 13.2 0 20 0 C18.87077998 10.16298021 18.87077998 10.16298021 17.125 14.25 C16.77179688 15.07757813 16.41859375 15.90515625 16.0546875 16.7578125 C14.86497497 19.28705321 13.55091323 21.67363015 12 24 C7.29284832 23.4351418 3.57427092 22.52475697 -1 21 C-0.67 14.07 -0.34 7.14 0 0 Z " fill="#F6F6F9" transform="translate(423,302)"/>
<path d="M0 0 C6.27 0 12.54 0 19 0 C19.33 2.371875 19.66 4.74375 20 7.1875 C20.10441406 7.92508545 20.20882813 8.6626709 20.31640625 9.42260742 C20.80018361 12.97654729 21.11141304 16.41389264 21 20 C19.42274653 20.70133599 17.83788667 21.385583 16.25 22.0625 C15.36828125 22.44535156 14.4865625 22.82820313 13.578125 23.22265625 C10.76958263 24.06947433 9.62145926 24.29957448 7 23 C2.20148727 16.08059767 0 8.33159045 0 0 Z " fill="#F8F8F9" transform="translate(345,302)"/>
<path d="M0 0 C7.26 0 14.52 0 22 0 C22 10.40576104 21.83810163 15.17954271 15.4609375 22.8515625 C9.24848585 28.82847096 1.7520583 30.15789909 -6.625 30.1875 C-8.41712975 30.1401011 -10.20916962 30.08307976 -12 30 C-12 29.67 -12 29.34 -12 29 C-9.69 29 -7.38 29 -5 29 C-5.33 28.01 -5.66 27.02 -6 26 C-3.62771537 23.62771537 -1.8661842 23.19831297 1.3125 22.1875 C5.98949246 20.51234192 9.04290608 19.15841333 12 15 C13.22831438 12.02196432 14.11783525 9.11079149 15 6 C10.05 6 5.1 6 0 6 C0 4.02 0 2.04 0 0 Z " fill="#444A92" transform="translate(510,642)"/>
<path d="M0 0 C5.61 0 11.22 0 17 0 C16.34 1.32 15.68 2.64 15 4 C11.66279528 4.85344908 8.46104529 4.8225105 5 5 C5 11.27 5 17.54 5 24 C7.97 24 10.94 24 14 24 C14 25.32 14 26.64 14 28 C12 29 12 29 5 29 C5 36.92 5 44.84 5 53 C3.35 53 1.7 53 0 53 C0 35.51 0 18.02 0 0 Z " fill="#1C174C" transform="translate(116,617)"/>
<path d="M0 0 C1.98 0 3.96 0 6 0 C6 19.14 6 38.28 6 58 C4.02 58 2.04 58 0 58 C0 38.86 0 19.72 0 0 Z " fill="#4D4E87" transform="translate(689,613)"/>
<path d="M0 0 C0.33 0 0.66 0 1 0 C5.87392453 16.75411559 2.97664966 32.77185064 -5 48 C-5.33 47.01 -5.66 46.02 -6 45 C-6.99 45.66 -7.98 46.32 -9 47 C-12.1875 47.125 -12.1875 47.125 -15 47 C-15 46.34 -15 45.68 -15 45 C-13.515 44.505 -13.515 44.505 -12 44 C-10.35873624 41.0721039 -10.35873624 41.0721039 -8.9375 37.5 C-8.43089844 36.3140625 -7.92429687 35.128125 -7.40234375 33.90625 C-5.63086331 29.22903283 -5.63086331 29.22903283 -4 21 C-10.27 21 -16.54 21 -23 21 C-23 20.67 -23 20.34 -23 20 C-16.73 20 -10.46 20 -4 20 C-4.33 19.01 -4.66 18.02 -5 17 C-4.67 16.34 -4.34 15.68 -4 15 C-4.99 15.33 -5.98 15.66 -7 16 C-9.74607776 15.91232913 -12.45091508 15.77043265 -15.1875 15.5625 C-15.93708984 15.51029297 -16.68667969 15.45808594 -17.45898438 15.40429688 C-19.30637082 15.27486216 -21.15324371 15.13813482 -23 15 C-23 14.67 -23 14.34 -23 14 C-16.73 14 -10.46 14 -4 14 C-4 11.36 -4 8.72 -4 6 C-3.01 5.34 -2.02 4.68 -1 4 C-0.27617533 1.94074861 -0.27617533 1.94074861 0 0 Z " fill="#474F9D" transform="translate(447,281)"/>
<path d="M0 0 C1.93824084 6.54156284 2 10.78070863 2 18 C-4.6 18 -11.2 18 -18 18 C-18.020625 15.380625 -18.04125 12.76125 -18.0625 10.0625 C-18.071604 9.2362915 -18.08070801 8.41008301 -18.09008789 7.55883789 C-18.09723945 5.70566241 -18.0502852 3.85250692 -18 2 C-16.23153656 0.23153656 -13.65314428 0.62213182 -11.25 0.4375 C-9.67992187 0.31181641 -9.67992187 0.31181641 -8.078125 0.18359375 C-5.37463715 0.02234511 -2.70709587 -0.03509198 0 0 Z " fill="#EFF0F4" transform="translate(415,277)"/>
<path d="M0 0 C2.81288705 0.14019692 5.62516885 0.28687955 8.4375 0.4375 C9.23994141 0.47681641 10.04238281 0.51613281 10.86914062 0.55664062 C16.88671875 0.88671875 16.88671875 0.88671875 18 2 C18.07325436 4.6986905 18.09222351 7.36502556 18.0625 10.0625 C18.041875 12.681875 18.02125 15.30125 18 18 C11.4 18 4.8 18 -2 18 C-1.09765625 4.078125 -1.09765625 4.078125 0 0 Z " fill="#F3F3F6" transform="translate(373,277)"/>
<path d="M0 0 C7.09197626 -0.79951298 11.35119611 0.16977439 17.1875 4.296875 C19.82525346 6.77545368 20.89583726 8.74171405 21.1953125 12.359375 C21.17210937 13.14828125 21.14890625 13.9371875 21.125 14.75 C21.10695312 15.54921875 21.08890625 16.3484375 21.0703125 17.171875 C21.04710937 17.77515625 21.02390625 18.3784375 21 19 C18.69 19 16.38 19 14 19 C14 18.01 14 17.02 14 16 C7.73 15.67 1.46 15.34 -5 15 C-4 9 -4 9 -2.625 7.125 C-1 6 -1 6 2 6 C1.67 5.01 1.34 4.02 1 3 C1.33 2.67 1.66 2.34 2 2 C1.34 1.34 0.68 0.68 0 0 Z " fill="#3B3D7B" transform="translate(187,635)"/>
<path d="M0 0 C6.40712969 -0.51257038 9.98670247 -0.13597047 15 4 C15.33 4.33 15.66 4.66 16 5 C16.33 3.68 16.66 2.36 17 1 C18.98 1 20.96 1 23 1 C23 12.55 23 24.1 23 36 C21.02 36 19.04 36 17 36 C16.67 34.68 16.34 33.36 16 32 C14.68 32.99 13.36 33.98 12 35 C11.505 33.515 11.505 33.515 11 32 C10.34 31.34 9.68 30.68 9 30 C9.78375 29.5875 10.5675 29.175 11.375 28.75 C14.18500385 26.8766641 14.79503276 26.05368411 16 23 C16.59269481 18.69718966 16.46581833 15.04254578 14.6875 11.0625 C11.30495065 6.92827302 8.09662613 6.57697654 3 6 C3.639375 5.731875 4.27875 5.46375 4.9375 5.1875 C7.33131686 4.11332248 7.33131686 4.11332248 8 1 C5.36 1 2.72 1 0 1 C0 0.67 0 0.34 0 0 Z " fill="#4C539A" transform="translate(655,635)"/>
<path d="M0 0 C6.27 0 12.54 0 19 0 C19 5.28 19 10.56 19 16 C10.09 16.99 10.09 16.99 1 18 C-0.03727221 11.77636672 -0.06988892 6.29000291 0 0 Z " fill="#F6F6F8" transform="translate(372,302)"/>
<path d="M0 0 C5.94 0 11.88 0 18 0 C18.07757462 6.28354434 17.8957059 11.73005873 17 18 C11.39 17.34 5.78 16.68 0 16 C0 10.72 0 5.44 0 0 Z " fill="#FBFBFB" transform="translate(398,302)"/>
<path d="M0 0 C1.65 0 3.3 0 5 0 C5 9.57 5 19.14 5 29 C5.66 29.33 6.32 29.66 7 30 C6.835 30.886875 6.67 31.77375 6.5 32.6875 C5.9690012 36.30861684 5.96625656 39.84305518 6 43.5 C6.04280034 48.13848712 5.84753998 52.44447263 5 57 C3.35 57 1.7 57 0 57 C0 38.19 0 19.38 0 0 Z " fill="#1A1549" transform="translate(603,613)"/>
<path d="M0 0 C0.33 0.99 0.66 1.98 1 3 C0.01 4.485 0.01 4.485 -1 6 C-2.97269923 6.15908865 -4.95061599 6.31206873 -6.9296875 6.30078125 C-9.5682752 7.19192691 -10.77701701 8.58429054 -12.20556641 10.94311523 C-13.91836329 15.37775376 -13.68638481 20.17904222 -13.75 24.875 C-13.77964844 25.94492187 -13.80929688 27.01484375 -13.83984375 28.1171875 C-13.910228 30.74486608 -13.96307994 33.37167364 -14 36 C-15.98 36 -17.96 36 -20 36 C-20 24.45 -20 12.9 -20 1 C-18.02 1 -16.04 1 -14 1 C-13.67 2.32 -13.34 3.64 -13 5 C-12.154375 4.175 -11.30875 3.35 -10.4375 2.5 C-7.03972892 -0.3787798 -4.43607134 -0.44360713 0 0 Z " fill="#1F1B4E" transform="translate(171,635)"/>
<path d="M0 0 C0 7.26 0 14.52 0 22 C-11 22 -11 22 -16 21 C-15.56653669 14.28131863 -14.6939634 7.78426006 -11 2 C-6.99874699 0.14227539 -4.39520894 0 0 0 Z " fill="#EDEDF2" transform="translate(391,249)"/>
<path d="M0 0 C9 1 9 1 11.375 3.4375 C16.86899252 15.48202207 16.86899252 15.48202207 15 21 C9.75103182 22.07671142 5.60877798 22 0 22 C0 14.74 0 7.48 0 0 Z " fill="#EFEFF3" transform="translate(397,249)"/>
<path d="M0 0 C0.33 1.65 0.66 3.3 1 5 C0.41992188 5.01417969 -0.16015625 5.02835938 -0.7578125 5.04296875 C-6.8589386 5.41547975 -9.72258464 6.61564925 -14 11 C-15.98190606 14.96381212 -15.56446493 19.69224132 -15 24 C-13.59473065 26.65333908 -11.90724711 28.65261895 -10 31 C-10.495 32.485 -10.495 32.485 -11 34 C-13.98086944 33.66879228 -15.7214516 33.2130076 -18.125 31.375 C-22.06215184 26.387941 -23.66412198 21.57665018 -23.40625 15.26953125 C-22.37416703 9.50376007 -18.98110047 5.37124091 -14.3125 2 C-9.67479145 -0.65138596 -5.20197351 -0.47969018 0 0 Z " fill="#2A2757" transform="translate(434,635)"/>
<path d="M0 0 C0 7.26 0 14.52 0 22 C-8.78664008 20.7447657 -8.78664008 20.7447657 -11 19 C-12.484375 15.8828125 -12.484375 15.8828125 -13.75 12.125 C-14.17796875 10.89007813 -14.6059375 9.65515625 -15.046875 8.3828125 C-16 5 -16 5 -16 1 C-10.78531031 -0.60744075 -5.40095963 -0.05870608 0 0 Z " fill="#F0F0F4" transform="translate(391,326)"/>
<path d="M0 0 C10.46153846 0 10.46153846 0 16 3 C17.62068951 6.24137902 17.54928387 9.49664069 17 13 C15.25 16 15.25 16 12 18 C7.90369758 18.41016292 4.13675889 18.22729444 0 18 C0 12.06 0 6.12 0 0 Z " fill="#F3F3F5" transform="translate(121,622)"/>
<path d="M0 0 C7.26 0 14.52 0 22 0 C22.34624622 10.38738661 21.28130096 15.57093967 14.59765625 23.484375 C12.8573608 25.13531542 11.18531981 26.03713771 9 27 C9.33 25.02 9.66 23.04 10 21 C9.01 20.67 8.02 20.34 7 20 C7.40992188 19.57589844 7.81984375 19.15179687 8.2421875 18.71484375 C8.78101563 18.12832031 9.31984375 17.54179688 9.875 16.9375 C10.40867187 16.36902344 10.94234375 15.80054688 11.4921875 15.21484375 C13.56013194 12.42638939 13.56013194 12.42638939 15 6 C10.05 6 5.1 6 0 6 C0 4.02 0 2.04 0 0 Z " fill="#41478E" transform="translate(383,642)"/>
<path d="M0 0 C11.25 0 11.25 0 15 1 C14.52877252 7.9113364 11.79363994 13.72204161 9 20 C6.03 20.33 3.06 20.66 0 21 C0 14.07 0 7.14 0 0 Z " fill="#F8F9FA" transform="translate(398,326)"/>
<path d="M0 0 C4.6839459 2.25189707 7.9243031 4.09208381 10.34375 8.94140625 C11.99520573 14.1218656 11.60723547 19.14257386 9.9375 24.25 C6.65701241 28.90617594 2.34961124 32.87603561 -3 35 C-5.578125 35.1953125 -5.578125 35.1953125 -8.25 35.125 C-9.58804688 35.09792969 -9.58804688 35.09792969 -10.953125 35.0703125 C-11.62859375 35.04710937 -12.3040625 35.02390625 -13 35 C-13 34.67 -13 34.34 -13 34 C-10.36 34 -7.72 34 -5 34 C-5.7763932 30.9254644 -5.7763932 30.9254644 -8 29 C-6.741875 28.62875 -5.48375 28.2575 -4.1875 27.875 C-1.04880528 26.67507423 -0.10728819 26.14081575 2 23.375 C3.25624391 19.13517681 3.89593123 15.37472726 3 11 C0.70800597 8.03949126 0.70800597 8.03949126 -2 6 C-2.33 5.34 -2.66 4.68 -3 4 C-1.35 4.33 0.3 4.66 2 5 C2 4.01 2 3.02 2 2 C1.34 2 0.68 2 0 2 C0 1.34 0 0.68 0 0 Z " fill="#404791" transform="translate(583,637)"/>
<path d="M0 0 C2.31 0 4.62 0 7 0 C7 11.55 7 23.1 7 35 C4.69 35 2.38 35 0 35 C0 23.45 0 11.9 0 0 Z " fill="#4D4E83" transform="translate(256,636)"/>
<path d="M0 0 C0.68191406 -0.01611328 1.36382812 -0.03222656 2.06640625 -0.04882812 C8.89720075 -0.05533364 14.2007334 2.26702637 19.5625 6.5 C20.24183594 7.02980469 20.92117188 7.55960938 21.62109375 8.10546875 C22.11738281 8.50378906 22.61367188 8.90210938 23.125 9.3125 C22.55155063 12.17974686 22.2635485 13.1739515 20.125 15.3125 C19.135 15.3125 18.145 15.3125 17.125 15.3125 C16.2278125 14.1678125 16.2278125 14.1678125 15.3125 13 C12.52612321 9.57673709 9.67153671 7.60039703 5.1706543 7.09155273 C3.06418459 7.05387929 0.97985077 7.09883413 -1.125 7.1875 C-8.66554054 7.41722973 -8.66554054 7.41722973 -10.875 6.3125 C-10.875 5.3225 -10.875 4.3325 -10.875 3.3125 C-11.535 2.9825 -12.195 2.6525 -12.875 2.3125 C-8.60108367 0.22543191 -4.6726435 -0.02183478 0 0 Z " fill="#383A78" transform="translate(377.875,614.6875)"/>
<path d="M0 0 C2.31 0 4.62 0 7 0 C7 4.62 7 9.24 7 14 C8.98 14 10.96 14 13 14 C13 15.98 13 17.96 13 20 C11.02 20 9.04 20 7 20 C7 29.57 7 39.14 7 49 C4.69 49 2.38 49 0 49 C0 39.43 0 29.86 0 20 C-1.65 20 -3.3 20 -5 20 C-5 19.67 -5 19.34 -5 19 C-3.02 19 -1.04 19 1 19 C1 28.57 1 38.14 1 48 C1.99 47.505 1.99 47.505 3 47 C3.02505615 46.15703369 3.0501123 45.31406738 3.07592773 44.44555664 C3.17088155 41.32758326 3.27012448 38.20978497 3.37231445 35.09204102 C3.41571223 33.74085853 3.4573837 32.38961947 3.49731445 31.03833008 C3.55489952 29.09963299 3.61914298 27.16113724 3.68359375 25.22265625 C3.72025146 24.05484619 3.75690918 22.88703613 3.79467773 21.68383789 C4 19 4 19 5 18 C5.23701239 15.14122091 5.42219182 12.30116703 5.5625 9.4375 C5.60568359 8.63119141 5.64886719 7.82488281 5.69335938 6.99414062 C5.79975262 4.99631195 5.90040888 2.9981793 6 1 C4.35 1 2.7 1 1 1 C1 5.29 1 9.58 1 14 C0.67 14 0.34 14 0 14 C0 9.38 0 4.76 0 0 Z " fill="#70719D" transform="translate(237,622)"/>
<path d="M0 0 C1.65 0 3.3 0 5 0 C5.02684312 2.81256281 5.04676188 5.62487241 5.0625 8.4375 C5.07087891 9.23994141 5.07925781 10.04238281 5.08789062 10.86914062 C5.0965143 12.91295221 5.0522815 14.95683902 5 17 C4.67 17.33 4.34 17.66 4 18 C3.8415735 20.0708472 3.74875578 22.14678029 3.68359375 24.22265625 C3.64169922 25.48271484 3.59980469 26.74277344 3.55664062 28.04101562 C3.51682404 29.38150736 3.47711186 30.7220022 3.4375 32.0625 C3.39431958 33.40691523 3.35070544 34.7513166 3.30664062 36.09570312 C3.20014642 39.3970234 3.0981354 42.69842236 3 46 C1.515 46.495 1.515 46.495 0 47 C0 37.43 0 27.86 0 18 C-1.98 18 -3.96 18 -6 18 C-6 16.68 -6 15.36 -6 14 C-4.35 13.67 -2.7 13.34 -1 13 C-0.67 8.71 -0.34 4.42 0 0 Z " fill="#2A2A66" transform="translate(238,623)"/>
<path d="M0 0 C10.35977097 -0.62158626 18.32354696 -0.34116243 26.71875 6.375 C28.125 7.6875 28.125 7.6875 30 10 C30 10.66 30 11.32 30 12 C28 13.625 28 13.625 26 15 C22.55296566 13.46798474 19.93413229 11.34730584 17 9 C13.76103142 7.04253638 11.00413194 6.64315228 7.25 6.375 C6.26515625 6.30023437 5.2803125 6.22546875 4.265625 6.1484375 C3.51796875 6.09945312 2.7703125 6.05046875 2 6 C2.66 5.34 3.32 4.68 4 4 C3.04134491 1.66924071 3.04134491 1.66924071 0 0 Z " fill="#3B3D7B" transform="translate(499,615)"/>
<path d="M0 0 C12.2093508 -0.5577876 23.91818441 -0.93111257 35 5 C36.3984375 7.171875 36.3984375 7.171875 37 9 C36.34 9 35.68 9 35 9 C34.67 9.66 34.34 10.32 34 11 C32.02253397 11.73080266 30.01927511 12.39421747 28 13 C27.01 13.33 26.02 13.66 25 14 C24.5359375 12.824375 24.5359375 12.824375 24.0625 11.625 C21.06294916 7.80738984 17.64649622 7.65265251 13 7 C13.66 6.01 14.32 5.02 15 4 C14.67 3.34 14.34 2.68 14 2 C10.72444392 1.52998967 10.72444392 1.52998967 6.9375 1.375 C5.00197266 1.26285156 5.00197266 1.26285156 3.02734375 1.1484375 C1.52880859 1.07496094 1.52880859 1.07496094 0 1 C0 0.67 0 0.34 0 0 Z " fill="#373A7C" transform="translate(384,242)"/>
<path d="M0 0 C0.99 0.33 1.98 0.66 3 1 C3 19.48 3 37.96 3 57 C2.01 57 1.02 57 0 57 C0 38.19 0 19.38 0 0 Z " fill="#232259" transform="translate(690,613)"/>
<path d="M0 0 C0.33 0 0.66 0 1 0 C1.33 8.91 1.66 17.82 2 27 C4.97 24.525 4.97 24.525 8 22 C12.51484772 20.85623858 16.33053519 21.71812008 20.5625 23.5 C21.366875 23.995 22.17125 24.49 23 25 C23 25.99 23 26.98 23 28 C18.8530784 28.59241737 14.87841962 29.06220289 10.6875 29 C7.05599867 28.80565169 7.05599867 28.80565169 4 30 C2.78130071 32.50447516 2.78130071 32.50447516 2 35 C1.67 35 1.34 35 1 35 C1.020625 34.195625 1.04125 33.39125 1.0625 32.5625 C1.29633621 30.06645115 1.29633621 30.06645115 0 29 C-0.08775605 26.85441173 -0.10695219 24.70595579 -0.09765625 22.55859375 C-0.09443359 21.25341797 -0.09121094 19.94824219 -0.08789062 18.60351562 C-0.07953401 17.2148431 -0.07106905 15.82617123 -0.0625 14.4375 C-0.05748666 13.04492344 -0.05292347 11.65234519 -0.04882812 10.25976562 C-0.03699434 6.8398013 -0.0205088 3.41992156 0 0 Z " fill="#444271" transform="translate(608,613)"/>
<path d="M0 0 C3.375 1.6875 3.375 1.6875 6 4 C6 5.65 6 7.3 6 9 C-0.27 9 -6.54 9 -13 9 C-11.83636364 3.18181818 -11.83636364 3.18181818 -9 1 C-5.64870516 -0.11709828 -3.51689744 -0.34479387 0 0 Z " fill="#FAFAFB" transform="translate(195,640)"/>
<path d="M0 0 C0.3125 2.25 0.3125 2.25 0 5 C-3.91873319 9.44123095 -9.33547551 10.95101398 -15 12 C-19.01598248 12.22232176 -22.98341537 12.1863364 -27 12 C-27 11.67 -27 11.34 -27 11 C-24.69 11 -22.38 11 -20 11 C-20.33 10.01 -20.66 9.02 -21 8 C-18.64756869 5.64756869 -16.81713547 5.08414977 -13.6875 4 C-10.86795341 3.01527432 -8.08442419 2.03559907 -5.33203125 0.875 C-3 0 -3 0 0 0 Z " fill="#414485" transform="translate(525,660)"/>
<path d="M0 0 C0.33 0 0.66 0 1 0 C1.53157278 8.85954637 -0.71553824 13.75119728 -6.40234375 20.484375 C-8.1426392 22.13531542 -9.81468019 23.03713771 -12 24 C-11.67 22.02 -11.34 20.04 -11 18 C-11.99 17.67 -12.98 17.34 -14 17 C-13.59007812 16.57589844 -13.18015625 16.15179687 -12.7578125 15.71484375 C-8.96922332 11.59090098 -7.12091066 8.49246223 -6 3 C-4.68 3.66 -3.36 4.32 -2 5 C-1.34 3.35 -0.68 1.7 0 0 Z " fill="#484F97" transform="translate(404,645)"/>
<path d="M0 0 C20 0 20 0 24 2 C24.75 4.625 24.75 4.625 25 7 C19.53891111 8.4002792 15.30723432 7.42705634 10 6 C10 5.67 10 5.34 10 5 C10.969375 4.87625 11.93875 4.7525 12.9375 4.625 C13.948125 4.41875 14.95875 4.2125 16 4 C16.33 3.34 16.66 2.68 17 2 C11.72 1.67 6.44 1.34 1 1 C1 18.49 1 35.98 1 54 C0.67 54 0.34 54 0 54 C0 36.18 0 18.36 0 0 Z " fill="#3C396B" transform="translate(115,616)"/>
<path d="M0 0 C2.31 0 4.62 0 7 0 C5.68995792 3.32688551 4.30751973 6.60477775 2.8359375 9.86328125 C2.43632812 10.74951172 2.03671875 11.63574219 1.625 12.54882812 C1.2125 13.46083984 0.8 14.37285156 0.375 15.3125 C-0.04523438 16.24384766 -0.46546875 17.17519531 -0.8984375 18.13476562 C-1.93134943 20.42360455 -2.96523234 22.71199959 -4 25 C-4.87840996 21.90279155 -4.99435406 20.09354597 -4 17 C-4.66 16.67 -5.32 16.34 -6 16 C-6 16.99 -6 17.98 -6 19 C-6.66 19 -7.32 19 -8 19 C-6.00386732 12.2813095 -3.2708579 6.19265192 0 0 Z " fill="#434A90" transform="translate(318,636)"/>
<path d="M0 0 C0.33 0.99 0.66 1.98 1 3 C0.01 4.485 0.01 4.485 -1 6 C-3.00558269 6.22643676 -5.01213488 6.44896946 -7.0234375 6.6171875 C-9.9131763 7.17686023 -11.24224497 8.72956642 -13 11 C-13 10.01 -13 9.02 -13 8 C-13.66 8 -14.32 8 -15 8 C-15 6.02 -15 4.04 -15 2 C-16.32 2 -17.64 2 -19 2 C-19 12.89 -19 23.78 -19 35 C-17.35 35 -15.7 35 -14 35 C-14 35.33 -14 35.66 -14 36 C-15.98 36 -17.96 36 -20 36 C-20 24.45 -20 12.9 -20 1 C-18.02 1 -16.04 1 -14 1 C-13.67 2.32 -13.34 3.64 -13 5 C-12.154375 4.175 -11.30875 3.35 -10.4375 2.5 C-7.03972892 -0.3787798 -4.43607134 -0.44360713 0 0 Z " fill="#706D91" transform="translate(171,635)"/>
<path d="M0 0 C0.33 0 0.66 0 1 0 C1.03738281 0.59167969 1.07476563 1.18335938 1.11328125 1.79296875 C1.51054897 6.56797099 1.95668 10.1045504 5 14 C7.76452033 15.38226016 10.0461363 15.09525387 13.125 15.0625 C14.22070312 15.05347656 15.31640625 15.04445313 16.4453125 15.03515625 C17.28835938 15.02355469 18.13140625 15.01195312 19 15 C18.125 19.75 18.125 19.75 17 22 C11.79721935 22.75873885 7.82942723 22.51734879 3.4375 19.4375 C0.54225625 16.67411884 0.02926631 15.22445183 -0.49609375 11.1953125 C-0.58143922 7.43877146 -0.34651478 3.73947205 0 0 Z " fill="#4D4B78" transform="translate(608,650)"/>
<path d="M0 0 C0.99 0.33 1.98 0.66 3 1 C2.814375 2.5159375 2.814375 2.5159375 2.625 4.0625 C3.07187015 8.75463653 4.35550873 10.12046846 7.58984375 13.32421875 C9.17237446 15.20484388 9.58738396 16.60264859 10 19 C7.8125 19.8125 7.8125 19.8125 5 20 C1.39200791 17.14716904 -0.85722211 14.46722267 -2 10 C-2.25041995 7.24005247 -2.18318654 4.79359473 -2 2 C-1.34 1.34 -0.68 0.68 0 0 Z " fill="#1D184B" transform="translate(414,649)"/>
<path d="M0 0 C1.65 0.66 3.3 1.32 5 2 C3.09828512 6.43733472 0.7253161 9.19752739 -3.6875 11.25 C-7.80109049 12.18137898 -11.80157788 12.54379563 -16 12 C-16.99 11.34 -17.98 10.68 -19 10 C-17.5459375 9.814375 -17.5459375 9.814375 -16.0625 9.625 C-15.051875 9.41875 -14.04125 9.2125 -13 9 C-12.67 8.34 -12.34 7.68 -12 7 C-10.29296875 6.2890625 -10.29296875 6.2890625 -8.1875 5.625 C-4.61526454 4.37439692 -2.45522009 2.96672428 0 0 Z " fill="#4A4980" transform="translate(203,660)"/>
<path d="M0 0 C1.36363636 4.09090909 1.36363636 4.09090909 0 7 C-4.39478631 10.15523119 -8.41411782 10.34966465 -13.6328125 10.3984375 C-16.45595971 9.92325431 -17.86443468 8.86000851 -20 7 C-19.01 6.67 -18.02 6.34 -17 6 C-16.26676204 3.98491642 -16.26676204 3.98491642 -16 2 C-15.34 2.33 -14.68 2.66 -14 3 C-10.66244287 3.68030346 -7.4087765 4.10996053 -4 4 C-1.3442285 2.26959882 -1.3442285 2.26959882 0 0 Z " fill="#353779" transform="translate(440,662)"/>
<path d="M0 0 C3.16115776 1.36983503 3.9927092 1.9890638 6 5 C6.265625 8.06640625 6.265625 8.06640625 6.25 11.5625 C6.25515625 12.71878906 6.2603125 13.87507812 6.265625 15.06640625 C6 18 6 18 4 20 C4 18.02 4 16.04 4 14 C3.01 15.485 3.01 15.485 2 17 C1.01 16.67 0.02 16.34 -1 16 C-1.66 12.37 -2.32 8.74 -3 5 C-1.68 4.67 -0.36 4.34 1 4 C0.67 2.68 0.34 1.36 0 0 Z " fill="#444B95" transform="translate(139,619)"/>
<path d="M0 0 C0.804375 0.804375 1.60875 1.60875 2.4375 2.4375 C6.26663263 5.68813058 10.1211256 5.88073863 15 6 C15.33 7.32 15.66 8.64 16 10 C11.72105157 12.4312207 7.83692755 12.76325829 3 12 C0.4375 10 0.4375 10 -1 8 C-0.01 6.68 0.98 5.36 2 4 C1.34 4 0.68 4 0 4 C0 2.68 0 1.36 0 0 Z " fill="#30316D" transform="translate(651,660)"/>
<path d="M0 0 C0.33 0.99 0.66 1.98 1 3 C0.40832031 3.31453125 -0.18335938 3.6290625 -0.79296875 3.953125 C-6.07400453 6.81332709 -10.72702939 9.72702939 -15 14 C-14.42415568 11.61435923 -13.77772405 9.33317216 -13 7 C-12.34 7 -11.68 7 -11 7 C-11 6.34 -11 5.68 -11 5 C-14.94139078 6.66751148 -17.7892812 9.22710649 -21 12 C-19.28151823 6.56283635 -16.36587339 4.48431005 -11.75390625 1.3828125 C-7.57409942 -0.71598412 -4.59672181 -0.51898472 0 0 Z " fill="#2D2C62" transform="translate(503,616)"/>
<path d="M0 0 C4.68656643 2.25315694 7.91545166 4.09396811 10.34765625 8.9375 C11.94698844 13.99407123 11.59819724 19.13063364 10 24.125 C9.67 24.74375 9.34 25.3625 9 26 C7.83693557 22.45049966 8.07634951 19.44176052 8.4375 15.75 C8.59025391 14.13351562 8.59025391 14.13351562 8.74609375 12.484375 C8.82988281 11.66453125 8.91367187 10.8446875 9 10 C8.01 10.33 7.02 10.66 6 11 C5.67 13.97 5.34 16.94 5 20 C4.67 20 4.34 20 4 20 C3.98582031 19.40832031 3.97164062 18.81664062 3.95703125 18.20703125 C3.68599853 13.71667842 3.50449211 11.59277823 0.5 8.0625 C-0.325 7.381875 -1.15 6.70125 -2 6 C-2.33 5.34 -2.66 4.68 -3 4 C-0.525 4.495 -0.525 4.495 2 5 C2 4.01 2 3.02 2 2 C1.34 2 0.68 2 0 2 C0 1.34 0 0.68 0 0 Z " fill="#52589B" transform="translate(583,637)"/>
<path d="M0 0 C0.85722656 -0.00515625 1.71445312 -0.0103125 2.59765625 -0.015625 C4.9375 0.25 4.9375 0.25 7.9375 2.25 C7.9375 2.91 7.9375 3.57 7.9375 4.25 C8.5975 4.25 9.2575 4.25 9.9375 4.25 C9.9375 5.24 9.9375 6.23 9.9375 7.25 C4.6575 7.25 -0.6225 7.25 -6.0625 7.25 C-6.3925 6.26 -6.7225 5.27 -7.0625 4.25 C-7.7225 3.59 -8.3825 2.93 -9.0625 2.25 C-5.93061623 0.41882898 -3.61429405 -0.0218057 0 0 Z " fill="#3A3B75" transform="translate(575.0625,634.75)"/>
<path d="M0 0 C-0.1875 2.3125 -0.1875 2.3125 -1 5 C-1.804375 5.474375 -2.60875 5.94875 -3.4375 6.4375 C-6.77018912 8.46962751 -7.09600235 10.3018278 -8 14 C-8.66 13.01 -9.32 12.02 -10 11 C-10.99 11 -11.98 11 -13 11 C-13.33 14.96 -13.66 18.92 -14 23 C-14.33 23 -14.66 23 -15 23 C-15.47335286 15.8471123 -15.49650045 9.88003905 -11 4 C-7.32655657 0.87366517 -4.85526906 -0.57120812 0 0 Z " fill="#2E2C60" transform="translate(190,636)"/>
<path d="M0 0 C2.04795423 1.9626228 2.94976638 3.4277307 3.19921875 6.26953125 C3.18858877 8.51954383 3.12958525 10.75385562 3 13 C0.69 13 -1.62 13 -4 13 C-4 12.01 -4 11.02 -4 10 C-10.27 9.67 -16.54 9.34 -23 9 C-23 8.67 -23 8.34 -23 8 C-16.73 8 -10.46 8 -4 8 C-3.67 7.01 -3.34 6.02 -3 5 C-2.67 4.67 -2.34 4.34 -2 4 C-2 3.34 -2 2.68 -2 2 C-1.34 2 -0.68 2 0 2 C0 1.34 0 0.68 0 0 Z " fill="#5D62A0" transform="translate(205,641)"/>
<path d="M0 0 C5.94 0 11.88 0 18 0 C18 3 18 3 17 5 C11.72 5 6.44 5 1 5 C0.67 3.35 0.34 1.7 0 0 Z " fill="#303275" transform="translate(398,296)"/>
<path d="M0 0 C2.31 0 4.62 0 7 0 C8.42705634 5.30723432 9.4002792 9.53891111 8 15 C5 14 5 14 3.61328125 11.34765625 C3.18402344 10.26355469 2.75476563 9.17945313 2.3125 8.0625 C1.87550781 6.98097656 1.43851562 5.89945313 0.98828125 4.78515625 C0 2 0 2 0 0 Z " fill="#2A2759" transform="translate(292,637)"/>
<path d="M0 0 C4.22963303 2.27749471 7.87969203 4.25563044 11 8 C11 8.66 11 9.32 11 10 C9 11.625 9 11.625 7 13 C3.18315774 11.44499019 0.80804268 8.96404505 -2 6 C-1.01 5.01 -0.02 4.02 1 3 C0.67 2.01 0.34 1.02 0 0 Z " fill="#464C92" transform="translate(518,617)"/>
<path d="M0 0 C0.6708712 1.6232687 1.33657029 3.24867578 2 4.875 C2.556875 6.23238281 2.556875 6.23238281 3.125 7.6171875 C4 10 4 10 4 12 C-1.08938811 10.40956621 -4.87456643 7.2553049 -9 4 C-8.67 3.01 -8.34 2.02 -8 1 C-5.07175348 0.02391783 -3.04386724 -0.08226668 0 0 Z " fill="#E4E4E9" transform="translate(368,330)"/>
<path d="M0 0 C3.42437702 1.23658059 6.44734711 2.35280441 9 5 C9.25 8.1875 9.25 8.1875 9 11 C8.01 11.33 7.02 11.66 6 12 C5.195625 11.030625 4.39125 10.06125 3.5625 9.0625 C0.22501271 5.66098418 -2.59421783 5.23791001 -7.2421875 5.0078125 C-8.11230469 5.00394531 -8.11230469 5.00394531 -9 5 C-9 4.67 -9 4.34 -9 4 C-6.03 4 -3.06 4 0 4 C0 2.68 0 1.36 0 0 Z " fill="#40468D" transform="translate(435,636)"/>
<path d="M0 0 C2 2 2 2 2 5 C21.14 5 40.28 5 60 5 C60 5.33 60 5.66 60 6 C39.54 6 19.08 6 -2 6 C-1 2 -1 2 0 0 Z " fill="#3A3F8B" transform="translate(495,364)"/>
<path d="M0 0 C1.23556641 0.01740234 1.23556641 0.01740234 2.49609375 0.03515625 C3.32238281 0.04417969 4.14867188 0.05320312 5 0.0625 C5.63808594 0.07410156 6.27617187 0.08570313 6.93359375 0.09765625 C6.93359375 1.41765625 6.93359375 2.73765625 6.93359375 4.09765625 C4.93359375 5.09765625 4.93359375 5.09765625 -2.06640625 5.09765625 C-2.06640625 13.01765625 -2.06640625 20.93765625 -2.06640625 29.09765625 C-3.38640625 28.76765625 -4.70640625 28.43765625 -6.06640625 28.09765625 C-5.07640625 28.09765625 -4.08640625 28.09765625 -3.06640625 28.09765625 C-3.07164307 27.28498291 -3.07687988 26.47230957 -3.08227539 25.63500977 C-3.10297619 21.97673303 -3.11604428 18.31846858 -3.12890625 14.66015625 C-3.14147461 12.74106445 -3.14147461 12.74106445 -3.15429688 10.78320312 C-3.15751953 9.56826172 -3.16074219 8.35332031 -3.1640625 7.1015625 C-3.16929932 5.97564697 -3.17453613 4.84973145 -3.17993164 3.68969727 C-3.02459185 0.14293912 -3.02459185 0.14293912 0 0 Z " fill="#232256" transform="translate(123.06640625,640.90234375)"/>
<path d="M0 0 C2.97 0.33 5.94 0.66 9 1 C9 4 9 4 7.609375 5.5703125 C6.68898438 6.33988281 6.68898438 6.33988281 5.75 7.125 C5.14671875 7.64320313 4.5434375 8.16140625 3.921875 8.6953125 C2 10 2 10 -2 11 C-1.34 7.37 -0.68 3.74 0 0 Z " fill="#E9EAF0" transform="translate(419,330)"/>
<path d="M0 0 C-0.99 3.3 -1.98 6.6 -3 10 C-9.75 9.125 -9.75 9.125 -12 8 C-10.67667681 4.03003043 -7.9910601 2.23963605 -4.75390625 -0.14453125 C-3 -1 -3 -1 0 0 Z " fill="#E8E8EC" transform="translate(371,257)"/>
<path d="M0 0 C3.82251825 1.5290073 6.1542158 2.62087819 9.3125 5 C10.00988281 5.515625 10.70726562 6.03125 11.42578125 6.5625 C11.94527344 7.036875 12.46476562 7.51125 13 8 C13 8.66 13 9.32 13 10 C10.03 10.66 7.06 11.32 4 12 C2.68 8.04 1.36 4.08 0 0 Z " fill="#ECEDF3" transform="translate(416,255)"/>
<path d="M0 0 C0.66 0 1.32 0 2 0 C2.97772468 5.30764827 3.50130596 10.63108121 4 16 C2.68 16.33 1.36 16.66 0 17 C-2.23465229 13.64802157 -2.27108649 12.42208754 -2.25 8.5 C-2.25515625 7.5409375 -2.2603125 6.581875 -2.265625 5.59375 C-2 3 -2 3 0 0 Z " fill="#231E4F" transform="translate(559,645)"/>
<path d="M0 0 C0.80308594 0.01417969 1.60617187 0.02835938 2.43359375 0.04296875 C3.64208984 0.05263672 3.64208984 0.05263672 4.875 0.0625 C6.87109375 0.23046875 6.87109375 0.23046875 7.87109375 1.23046875 C7.91190158 3.23005239 7.91363731 5.23092129 7.87109375 7.23046875 C6.75734375 7.20984375 5.64359375 7.18921875 4.49609375 7.16796875 C1.03893454 6.96666157 1.03893454 6.96666157 -1.12890625 8.23046875 C-1.45890625 7.24046875 -1.78890625 6.25046875 -2.12890625 5.23046875 C-1.79890625 4.57046875 -1.46890625 3.91046875 -1.12890625 3.23046875 C-3.60390625 4.71546875 -3.60390625 4.71546875 -6.12890625 6.23046875 C-3.39275577 0.36728916 -3.39275577 0.36728916 0 0 Z " fill="#3D3E7B" transform="translate(283.12890625,611.76953125)"/>
<path d="M0 0 C1.8253125 0.7115625 1.8253125 0.7115625 3.6875 1.4375 C6.77268791 2.59924038 9.73121198 3.48925187 13 4 C12.67 5.65 12.34 7.3 12 9 C2.58997722 9.3690205 2.58997722 9.3690205 -2 7 C-1.01 6.34 -0.02 5.68 1 5 C0.67 3.35 0.34 1.7 0 0 Z " fill="#313068" transform="translate(493,662)"/>
<path d="M0 0 C0 1.98 0 3.96 0 6 C-0.99 6 -1.98 6 -3 6 C-3 6.99 -3 7.98 -3 9 C-3.99 9 -4.98 9 -6 9 C-6.33 8.34 -6.66 7.68 -7 7 C-8.65 8.65 -10.3 10.3 -12 12 C-11.88111298 5.93676223 -11.88111298 5.93676223 -9.515625 3.421875 C-5.99371927 0.80302202 -4.56552793 0 0 0 Z " fill="#29265A" transform="translate(369,249)"/>
<path d="M0 0 C0.91007812 0.00902344 1.82015625 0.01804687 2.7578125 0.02734375 C3.45648438 0.03894531 4.15515625 0.05054688 4.875 0.0625 C5.205 1.7125 5.535 3.3625 5.875 5.0625 C4.95267578 5.15337891 4.95267578 5.15337891 4.01171875 5.24609375 C3.20347656 5.32988281 2.39523437 5.41367187 1.5625 5.5 C0.76199219 5.58121094 -0.03851563 5.66242187 -0.86328125 5.74609375 C-3.28587179 6.01515693 -3.28587179 6.01515693 -6.125 7.0625 C-6.455 5.0825 -6.785 3.1025 -7.125 1.0625 C-4.60024538 -0.19987731 -2.81299534 -0.03606404 0 0 Z " fill="#383972" transform="translate(429.125,634.9375)"/>
<path d="M0 0 C2.5625 0.1875 2.5625 0.1875 4.5625 2.1875 C4.00694444 6.74305556 4.00694444 6.74305556 2.5625 8.1875 C0.125 8.375 0.125 8.375 -2.4375 8.1875 C-3.0975 7.5275 -3.7575 6.8675 -4.4375 6.1875 C-3.71780303 0.28598485 -3.71780303 0.28598485 0 0 Z " fill="#3D3D77" transform="translate(259.4375,615.8125)"/>
<path d="M0 0 C2.72524641 2.60675744 3.96267007 3.92191153 4.09765625 7.8203125 C4.08605469 8.91085937 4.07445312 10.00140625 4.0625 11.125 C4.05347656 12.22070312 4.04445313 13.31640625 4.03515625 14.4453125 C4.02355469 15.28835938 4.01195312 16.13140625 4 17 C3.34 15.68 2.68 14.36 2 13 C1.01 13 0.02 13 -1 13 C-1.33 13 -1.66 13 -2 13 C-2.33 10.69 -2.66 8.38 -3 6 C-2.01 5.67 -1.02 5.34 0 5 C0 3.35 0 1.7 0 0 Z " fill="#4A519C" transform="translate(444,642)"/>
<path d="M0 0 C5.841744 -0.35050464 9.8531808 -0.16727335 15 3 C15 3.99 15 4.98 15 6 C9.97874074 6.77916092 6.02296004 7.13016601 1 6 C1 5.67 1 5.34 1 5 C2.65 5 4.3 5 6 5 C6 3.68 6 2.36 6 1 C4.02 1 2.04 1 0 1 C0 0.67 0 0.34 0 0 Z " fill="#474881" transform="translate(616,635)"/>
<path d="M0 0 C0.33 1.32 0.66 2.64 1 4 C-1 6 -1 6 -4.375 6.25 C-7.63523324 6.02515633 -9.30632641 5.7239511 -12 4 C-11.67 3.01 -11.34 2.02 -11 1 C-5.555 0.505 -5.555 0.505 0 0 Z " fill="#2D2F6E" transform="translate(626,665)"/>
<path d="M0 0 C2.27076842 -0.02699725 4.54162821 -0.04639453 6.8125 -0.0625 C8.07707031 -0.07410156 9.34164062 -0.08570313 10.64453125 -0.09765625 C14 0 14 0 17 1 C17 1.99 17 2.98 17 4 C12.05 4 7.1 4 2 4 C2.33 3.34 2.66 2.68 3 2 C2.01 1.34 1.02 0.68 0 0 Z " fill="#2F3070" transform="translate(184,650)"/>
<path d="M0 0 C0.66 0.33 1.32 0.66 2 1 C2.17942163 4.94727588 2.09350689 7.5980513 0 11 C-2.31 11 -4.62 11 -7 11 C-5.75023244 7.34683329 -5.32901247 6.21934164 -2 4 C-0.80767387 1.94996045 -0.80767387 1.94996045 0 0 Z " fill="#343264" transform="translate(302,676)"/>
<path d="M0 0 C3.80881639 1.44472346 5.29742886 3.32603071 7 7 C6.67 7.99 6.34 8.98 6 10 C2.31245243 9.50168276 0.39509338 8.89932357 -2 6 C-1.34 4.02 -0.68 2.04 0 0 Z " fill="#2D2A5D" transform="translate(417,659)"/>
<path d="M0 0 C6.6 0 13.2 0 20 0 C20 4 20 4 19 7 C17.02 7 15.04 7 13 7 C13.66 6.01 14.32 5.02 15 4 C14.67 3.34 14.34 2.68 14 2 C10.72444392 1.52998967 10.72444392 1.52998967 6.9375 1.375 C5.00197266 1.26285156 5.00197266 1.26285156 3.02734375 1.1484375 C1.52880859 1.07496094 1.52880859 1.07496094 0 1 C0 0.67 0 0.34 0 0 Z " fill="#41417C" transform="translate(384,242)"/>
<path d="M0 0 C0.99 0 1.98 0 3 0 C4.56393356 3.97376829 3.36145292 6.81377903 2.0625 10.75 C1.68222656 11.92046875 1.30195313 13.0909375 0.91015625 14.296875 C0.60980469 15.18890625 0.30945313 16.0809375 0 17 C-0.87840996 13.90279155 -0.99435406 12.09354597 0 9 C-0.66 8.67 -1.32 8.34 -2 8 C-2 8.99 -2 9.98 -2 11 C-2.66 11 -3.32 11 -4 11 C-3.52269162 9.5410574 -3.04308958 8.08286504 -2.5625 6.625 C-2.29566406 5.81289063 -2.02882813 5.00078125 -1.75390625 4.1640625 C-1 2 -1 2 0 0 Z " fill="#3A3D83" transform="translate(314,644)"/>
<path d="M0 0 C2.51570636 0.97382182 3.73944098 1.46151135 4.9375 3.9375 C5 6 5 6 3.75 7.75 C2 9 2 9 -1 9 C-2.6875 6.5 -2.6875 6.5 -4 4 C-2.68 2.68 -1.36 1.36 0 0 Z " fill="#484E95" transform="translate(396,621)"/>
<path d="M0 0 C0.66 0.33 1.32 0.66 2 1 C0.53206651 5.64845606 0.53206651 5.64845606 -1.75 7.15625 C-4.39653101 8.14869913 -6.43209564 8.19915538 -9.25 8.125 C-10.14203125 8.10695313 -11.0340625 8.08890625 -11.953125 8.0703125 C-12.96632813 8.03550781 -12.96632813 8.03550781 -14 8 C-14 7.67 -14 7.34 -14 7 C-11.36 7 -8.72 7 -6 7 C-6.7763932 3.9254644 -6.7763932 3.9254644 -9 2 C-6.94921875 1.77213542 -4.8984375 1.54427083 -2.84765625 1.31640625 C-0.98859771 1.18113386 -0.98859771 1.18113386 0 0 Z " fill="#474A86" transform="translate(584,664)"/>
<path d="M0 0 C0 3 0 3 -1.9375 5.0625 C-2.38738281 5.4853125 -2.83726562 5.908125 -3.30078125 6.34375 C-5.50968652 8.4967979 -7.55975645 10.77152837 -9.625 13.0625 C-10.38039062 13.89910156 -11.13578125 14.73570312 -11.9140625 15.59765625 C-13.71569276 17.67256751 -15.38771617 19.77669141 -17 22 C-17.99 21.67 -18.98 21.34 -20 21 C-17.60557261 18.4361832 -15.20920507 15.87418756 -12.8125 13.3125 C-12.13896484 12.59126953 -11.46542969 11.87003906 -10.77148438 11.12695312 C-7.23991964 7.35420836 -3.68273025 3.62552279 0 0 Z " fill="#3B3664" transform="translate(215,142)"/>
<path d="M0 0 C0.93423645 3.01031744 1.04449911 3.86650268 0 7 C-0.99 7.495 -0.99 7.495 -2 8 C-1.67 8.66 -1.34 9.32 -1 10 C-1.99 10 -2.98 10 -4 10 C-5.20628008 12.33214148 -6.1654738 14.49642139 -7 17 C-8.29355827 18.37195574 -9.62298702 19.71182656 -11 21 C-11.99 20.67 -12.98 20.34 -14 20 C-13.49210938 19.39414062 -12.98421875 18.78828125 -12.4609375 18.1640625 C-7.71675735 12.38931138 -3.65937194 6.51479096 0 0 Z " fill="#4D5095" transform="translate(533,444)"/>
<path d="M0 0 C2.475 0.99 2.475 0.99 5 2 C3.55922954 5.36179774 1.75249979 7.59156268 -1 10 C-1.66 10 -2.32 10 -3 10 C-3 8.68 -3 7.36 -3 6 C-3.33 5.67 -3.66 5.34 -4 5 C-2.68 3.35 -1.36 1.7 0 0 Z " fill="#4C5197" transform="translate(203,660)"/>
<path d="M0 0 C0 0.99 0 1.98 0 3 C0.66 3 1.32 3 2 3 C2 3.66 2 4.32 2 5 C0.25 6.5078125 0.25 6.5078125 -2 8.125 C-2.7425 8.66382813 -3.485 9.20265625 -4.25 9.7578125 C-4.8275 10.16773438 -5.405 10.57765625 -6 11 C-6.8125 8.3125 -6.8125 8.3125 -7 5 C-2.97826087 0 -2.97826087 0 0 0 Z " fill="#262359" transform="translate(367,618)"/>
<path d="M0 0 C4.62 0 9.24 0 14 0 C14.33 1.65 14.66 3.3 15 5 C14 6 14 6 10.4375 6.0625 C9.303125 6.041875 8.16875 6.02125 7 6 C7.66 5.67 8.32 5.34 9 5 C9 3.68 9 2.36 9 1 C6.03 1 3.06 1 0 1 C0 0.67 0 0.34 0 0 Z " fill="#3B3C77" transform="translate(121,640)"/>
<path d="M0 0 C0.66 0 1.32 0 2 0 C2 0.99 2 1.98 2 3 C1.01 3.495 1.01 3.495 0 4 C-0.65555119 6.52733235 -0.65555119 6.52733235 -1 9 C-1.99 9 -2.98 9 -4 9 C-4.33 12.96 -4.66 16.92 -5 21 C-5.33 21 -5.66 21 -6 21 C-6.48290881 13.70271128 -6.22181235 8.14782164 -2 2 C-1.34 1.34 -0.68 0.68 0 0 Z " fill="#3D3964" transform="translate(181,638)"/>
<path d="M0 0 C0.99 0 1.98 0 3 0 C3.3125 2.6875 3.3125 2.6875 3 6 C0.5 8.875 0.5 8.875 -2 11 C-3 8 -3 8 -3 6 C-3.99 6 -4.98 6 -6 6 C-4 4 -2 2 0 0 Z M-1 3 C-1 3.99 -1 4.98 -1 6 C-0.34 6 0.32 6 1 6 C0.67 5.01 0.34 4.02 0 3 C-0.33 3 -0.66 3 -1 3 Z " fill="#28265B" transform="translate(420,637)"/>
<path d="M0 0 C2.5 2.3125 2.5 2.3125 5 5 C5 5.99 5 6.98 5 8 C4.34 8 3.68 8 3 8 C3 6.68 3 5.36 3 4 C2.34 4 1.68 4 1 4 C0.34 5.32 -0.32 6.64 -1 8 C-2.65 6.35 -4.3 4.7 -6 3 C-5.01 3 -4.02 3 -3 3 C-2.67 2.34 -2.34 1.68 -2 1 C-1.34 1.33 -0.68 1.66 0 2 C0 1.34 0 0.68 0 0 Z " fill="#4E5497" transform="translate(631,639)"/>
<path d="M0 0 C1.9375 0.75 1.9375 0.75 4 2 C4.75 4.125 4.75 4.125 5 6 C7.97 6.495 7.97 6.495 11 7 C11 7.33 11 7.66 11 8 C9.41753293 8.08153933 7.83383727 8.13943557 6.25 8.1875 C5.36828125 8.22230469 4.4865625 8.25710938 3.578125 8.29296875 C0.55328417 7.94923684 -0.75583602 6.99772541 -3 5 C-2.01 4.67 -1.02 4.34 0 4 C0 2.68 0 1.36 0 0 Z " fill="#51507F" transform="translate(423,664)"/>
<path d="M0 0 C2.28304899 0.0179485 4.52425196 0.11763285 6.796875 0.33203125 C6.1171875 2.28515625 6.1171875 2.28515625 4.796875 4.33203125 C2.4140625 4.94140625 2.4140625 4.94140625 -0.328125 5.08203125 C-1.23820312 5.13875 -2.14828125 5.19546875 -3.0859375 5.25390625 C-3.78460938 5.2796875 -4.48328125 5.30546875 -5.203125 5.33203125 C-4.06475685 2.29638286 -3.36675282 0.50740069 0 0 Z " fill="#292964" transform="translate(126.203125,616.66796875)"/>
<path d="M0 0 C1.5 1.125 1.5 1.125 3 3 C3.1875 6.1875 3.1875 6.1875 3 9 C3.66 9 4.32 9 5 9 C5 9.66 5 10.32 5 11 C7.31 11 9.62 11 12 11 C12 11.33 12 11.66 12 12 C3.80743982 12.63019694 3.80743982 12.63019694 0.4375 10 C-0.2740625 9.01 -0.2740625 9.01 -1 8 C-0.01 6.68 0.98 5.36 2 4 C1.34 4 0.68 4 0 4 C0 2.68 0 1.36 0 0 Z " fill="#504E7B" transform="translate(651,660)"/>
<path d="M0 0 C1.4370809 -0.05422947 2.87475462 -0.09289723 4.3125 -0.125 C5.11300781 -0.14820313 5.91351562 -0.17140625 6.73828125 -0.1953125 C9 0 9 0 12 2 C12.33 3.32 12.66 4.64 13 6 C9.7 6 6.4 6 3 6 C4.32 5.34 5.64 4.68 7 4 C7.33 3.01 7.66 2.02 8 1 C5.36 1 2.72 1 0 1 C0 0.67 0 0.34 0 0 Z " fill="#45467F" transform="translate(655,635)"/>
<path d="M0 0 C2.475 0.99 2.475 0.99 5 2 C4.34 3.98 3.68 5.96 3 8 C2.01 7.34 1.02 6.68 0 6 C-2.27912938 5.54605448 -2.27912938 5.54605448 -4.6875 5.375 C-5.89986328 5.26285156 -5.89986328 5.26285156 -7.13671875 5.1484375 C-7.75160156 5.09945312 -8.36648438 5.05046875 -9 5 C-9 4.67 -9 4.34 -9 4 C-6.03 4 -3.06 4 0 4 C0 2.68 0 1.36 0 0 Z " fill="#484A87" transform="translate(435,636)"/>
<path d="M0 0 C2.31 0 4.62 0 7 0 C7.33 0.99 7.66 1.98 8 3 C7.01 4.485 7.01 4.485 6 6 C2.375 6.1875 2.375 6.1875 -1 6 C-0.01 5.34 0.98 4.68 2 4 C2.33 3.01 2.66 2.02 3 1 C2.01 0.67 1.02 0.34 0 0 Z " fill="#575C9C" transform="translate(164,635)"/>
<path d="M0 0 C0.33 0.99 0.66 1.98 1 3 C-1.89112067 7.74728764 -6.50770397 11.80547838 -11 15 C-11.99 14.67 -12.98 14.34 -14 14 C-13.49210937 13.57589844 -12.98421875 13.15179688 -12.4609375 12.71484375 C-7.83373646 8.77219118 -3.84408054 4.70899866 0 0 Z " fill="#9176A7" transform="translate(445,335)"/>
<path d="M0 0 C0.33 1.32 0.66 2.64 1 4 C0.34 4 -0.32 4 -1 4 C-1.66 5.65 -2.32 7.3 -3 9 C-4.98 9 -6.96 9 -9 9 C-9 8.34 -9 7.68 -9 7 C-4.61538462 4 -4.61538462 4 -2 4 C-2 3.01 -2 2.02 -2 1 C-1.34 0.67 -0.68 0.34 0 0 Z " fill="#414A95" transform="translate(441,319)"/>
<path d="M0 0 C2.5 1.3125 2.5 1.3125 5 3 C5 3.99 5 4.98 5 6 C4.34 6 3.68 6 3 6 C3.33 7.65 3.66 9.3 4 11 C2.35 9.35 0.7 7.7 -1 6 C-0.34 5.67 0.32 5.34 1 5 C0.67 3.35 0.34 1.7 0 0 Z " fill="#42488F" transform="translate(200,637)"/>
<path d="M0 0 C0.33 0.66 0.66 1.32 1 2 C1.99 2.33 2.98 2.66 4 3 C4 4.32 4 5.64 4 7 C2.02 7.66 0.04 8.32 -2 9 C-1.51421457 5.87709365 -1.0013988 3.00419641 0 0 Z " fill="#3D4492" transform="translate(443,652)"/>
<path d="M0 0 C0 0.66 0 1.32 0 2 C0.99 2.33 1.98 2.66 3 3 C3 3.99 3 4.98 3 6 C1.02 6.33 -0.96 6.66 -3 7 C-3.33 5.02 -3.66 3.04 -4 1 C-2 0 -2 0 0 0 Z " fill="#373979" transform="translate(406,347)"/>
<path d="M0 0 C1.98 0 3.96 0 6 0 C6 1.32 6 2.64 6 4 C3.03 4 0.06 4 -3 4 C-2.01 3.67 -1.02 3.34 0 3 C0 2.01 0 1.02 0 0 Z " fill="#424890" transform="translate(285,637)"/>
<path d="M0 0 C1.98 0 3.96 0 6 0 C6 1.32 6 2.64 6 4 C3.36 4 0.72 4 -2 4 C-1.34 2.68 -0.68 1.36 0 0 Z " fill="#3E438C" transform="translate(224,637)"/>
<path d="M0 0 C2.475 0.99 2.475 0.99 5 2 C5 2.99 5 3.98 5 5 C2.36 5.33 -0.28 5.66 -3 6 C-2.34 5.34 -1.68 4.68 -1 4 C-0.3574765 1.93125966 -0.3574765 1.93125966 0 0 Z " fill="#3F4385" transform="translate(626,636)"/>
<path d="M0 0 C-2.36595933 2.61500768 -4.86049226 4.38999603 -8 6 C-8.66 5.67 -9.32 5.34 -10 5 C-9 2 -9 2 -7.25 0.8125 C-4.70039426 -0.10819096 -2.69076919 -0.14948718 0 0 Z " fill="#3C4088" transform="translate(515,541)"/>
<path d="M0 0 C0.33 0.66 0.66 1.32 1 2 C0.34 2 -0.32 2 -1 2 C-1.33 3.65 -1.66 5.3 -2 7 C-2.99 7 -3.98 7 -5 7 C-5.33 5.35 -5.66 3.7 -6 2 C-4.02 1.34 -2.04 0.68 0 0 Z " fill="#3D4184" transform="translate(201,664)"/>
<path d="M0 0 C0.66 0.33 1.32 0.66 2 1 C-1.3 4.3 -4.6 7.6 -8 11 C-8 6.67750434 -5.85084926 5.11604454 -3 2 C-2.01 1.34 -1.02 0.68 0 0 Z " fill="#47446F" transform="translate(363,618)"/>
<path d="M0 0 C1.98 0.495 1.98 0.495 4 1 C4.33 2.65 4.66 4.3 5 6 C3.02 6.33 1.04 6.66 -1 7 C-0.34 6.01 0.32 5.02 1 4 C0.69159401 1.84725052 0.69159401 1.84725052 0 0 Z " fill="#3C4084" transform="translate(135,617)"/>
<path d="M0 0 C1.47906892 -0.02689216 2.95827483 -0.04634621 4.4375 -0.0625 C5.26121094 -0.07410156 6.08492188 -0.08570313 6.93359375 -0.09765625 C9 0 9 0 10 1 C10.04080783 2.99958364 10.04254356 5.00045254 10 7 C7.03 6.505 7.03 6.505 4 6 C5.32 5.67 6.64 5.34 8 5 C7.67 4.01 7.34 3.02 7 2 C4.69 1.67 2.38 1.34 0 1 C0 0.67 0 0.34 0 0 Z " fill="#5F65A3" transform="translate(281,612)"/>
<path d="M0 0 C0.66 0 1.32 0 2 0 C1.9375 2.1875 1.9375 2.1875 1 5 C-1.1717219 6.93157957 -3.52601047 8.48201687 -6 10 C-4.34643078 6.41726669 -2.32019297 3.19026533 0 0 Z " fill="#C1ACCD" transform="translate(475,367)"/>
<path d="M0 0 C0 0.33 0 0.66 0 1 C-1.546875 1.3403125 -1.546875 1.3403125 -3.125 1.6875 C-7.34408258 2.86471856 -9.81536784 5.04838971 -13 8 C-12.06601394 4.85841051 -11.33205059 3.2674852 -8.75 1.1875 C-5.62298529 -0.16280181 -3.3717092 -0.23523553 0 0 Z " fill="#CFCFDB" transform="translate(195,640)"/>
<path d="M0 0 C1.65 0 3.3 0 5 0 C4.67 1.32 4.34 2.64 4 4 C2.02 4.33 0.04 4.66 -2 5 C-1.34 3.35 -0.68 1.7 0 0 Z " fill="#2B2B69" transform="translate(658,636)"/>
<path d="M0 0 C0.66 0.33 1.32 0.66 2 1 C-1.63 4.3 -5.26 7.6 -9 11 C-9 8 -9 8 -6.75 5.5 C-4.56458892 3.51326265 -2.41145588 1.69695043 0 0 Z " fill="#433F6B" transform="translate(492,617)"/>
<path d="M0 0 C1.32 0 2.64 0 4 0 C4 1.98 4 3.96 4 6 C3.34 5.01 2.68 4.02 2 3 C0.68 3.99 -0.64 4.98 -2 6 C-1.125 1.125 -1.125 1.125 0 0 Z " fill="#4D5292" transform="translate(669,664)"/>
<path d="M0 0 C0.33 0 0.66 0 1 0 C1.5497272 5.63470383 -0.04952165 8.38987758 -3 13 C-3.33 12.34 -3.66 11.68 -4 11 C-3.36474424 9.32110979 -2.69313908 7.65583225 -2 6 C-1.65939189 4.33480481 -1.32441604 2.66842534 -1 1 C-0.67 0.67 -0.34 0.34 0 0 Z " fill="#C7AFD1" transform="translate(496,331)"/>
<path d="M0 0 C2.97526665 2.55022856 4.50122302 5.40293526 6 9 C5.67 9.99 5.34 10.98 5 12 C4.54625 11.195625 4.0925 10.39125 3.625 9.5625 C2.25274335 6.91143428 2.25274335 6.91143428 0 6 C0 4.02 0 2.04 0 0 Z " fill="#B394C0" transform="translate(488,238)"/>
<path d="M0 0 C0.33 0 0.66 0 1 0 C1 2.31 1 4.62 1 7 C0.01 7.33 -0.98 7.66 -2 8 C-2 8.99 -2 9.98 -2 11 C-2.66 11 -3.32 11 -4 11 C-3.52269162 9.5410574 -3.04308958 8.08286504 -2.5625 6.625 C-2.29566406 5.81289063 -2.02882813 5.00078125 -1.75390625 4.1640625 C-1 2 -1 2 0 0 Z " fill="#5B5D93" transform="translate(314,644)"/>
<path d="M0 0 C0.66 0.33 1.32 0.66 2 1 C0.92643323 2.15498897 -0.15929788 3.29867867 -1.25 4.4375 C-1.85328125 5.07558594 -2.4565625 5.71367187 -3.078125 6.37109375 C-5.10048016 8.08516306 -6.41270605 8.59358878 -9 9 C-6.31941902 5.42589203 -3.57410797 2.68058098 0 0 Z " fill="#45416C" transform="translate(232,127)"/>
<path d="M0 0 C1.65 0 3.3 0 5 0 C5 1.65 5 3.3 5 5 C3.68 4.67 2.36 4.34 1 4 C0.67 2.68 0.34 1.36 0 0 Z " fill="#1E1A4C" transform="translate(292,637)"/>
<path d="M0 0 C0.33 0 0.66 0 1 0 C2.10228696 4.40914783 2.07654536 8.48382401 2 13 C1.01 12.67 0.02 12.34 -1 12 C-0.835 11.13375 -0.67 10.2675 -0.5 9.375 C-0.02781452 6.18774801 0.07655118 3.21514973 0 0 Z " fill="#B592C2" transform="translate(500,269)"/>
<path d="M0 0 C2.64 0.66 5.28 1.32 8 2 C7.01 3.485 7.01 3.485 6 5 C4.125 4.75 4.125 4.75 2 4 C0.75 1.9375 0.75 1.9375 0 0 Z " fill="#484C94" transform="translate(533,212)"/>
<path d="M0 0 C0.66 0.66 1.32 1.32 2 2 C-0.64 4.31 -3.28 6.62 -6 9 C-6.33 8.01 -6.66 7.02 -7 6 C-5.68 5.67 -4.36 5.34 -3 5 C-3 4.34 -3 3.68 -3 3 C-2.34 3 -1.68 3 -1 3 C-0.67 2.01 -0.34 1.02 0 0 Z " fill="#454B97" transform="translate(572,186)"/>
<path d="M0 0 C0.33 0.66 0.66 1.32 1 2 C0.33333333 3.33333333 -0.33333333 4.66666667 -1 6 C-1.38290462 7.99110401 -1.72604615 9.99100513 -2 12 C-2.33 12 -2.66 12 -3 12 C-3.08131463 10.56344146 -3.13933559 9.1255517 -3.1875 7.6875 C-3.22230469 6.88699219 -3.25710938 6.08648438 -3.29296875 5.26171875 C-2.93801608 2.52148416 -2.10633718 1.70828921 0 0 Z " fill="#5B567A" transform="translate(414,645)"/>
<path d="M0 0 C2.31 0 4.62 0 7 0 C5.92598892 2.91517292 5.22189824 4.77810176 3 7 C3 5.02 3 3.04 3 1 C2.01 0.67 1.02 0.34 0 0 Z " fill="#6F75B1" transform="translate(318,636)"/>
<path d="M0 0 C2.97 0.495 2.97 0.495 6 1 C6 1.99 6 2.98 6 4 C4.02 4.33 2.04 4.66 0 5 C0 3.35 0 1.7 0 0 Z " fill="#383E86" transform="translate(243,636)"/>
<path d="M0 0 C0.66 0.33 1.32 0.66 2 1 C-0.64 3.64 -3.28 6.28 -6 9 C-6.66 8.67 -7.32 8.34 -8 8 C-7.04578192 6.85073734 -6.08647955 5.70569459 -5.125 4.5625 C-4.59132812 3.92441406 -4.05765625 3.28632813 -3.5078125 2.62890625 C-2 1 -2 1 0 0 Z " fill="#E2E2E8" transform="translate(255,184)"/>
<path d="M0 0 C1.52519276 0.08937803 3.04681929 0.24537146 4.5625 0.4375 C5.80193359 0.59025391 5.80193359 0.59025391 7.06640625 0.74609375 C7.70449219 0.82988281 8.34257812 0.91367188 9 1 C9 1.66 9 2.32 9 3 C9.66 3.33 10.32 3.66 11 4 C9.37419034 3.88601335 7.74932843 3.75844341 6.125 3.625 C5.22007812 3.55539063 4.31515625 3.48578125 3.3828125 3.4140625 C1 3 1 3 -1 1 C-0.67 0.67 -0.34 0.34 0 0 Z " fill="#54548D" transform="translate(424,134)"/>
<path d="M0 0 C0.66 1.32 1.32 2.64 2 4 C1.01 4.99 0.02 5.98 -1 7 C-1.33 5.35 -1.66 3.7 -2 2 C-1.34 2 -0.68 2 0 2 C0 1.34 0 0.68 0 0 Z M-3 6 C-2.34 6.66 -1.68 7.32 -1 8 C-1.99 8.495 -1.99 8.495 -3 9 C-3 8.01 -3 7.02 -3 6 Z " fill="#4E539B" transform="translate(205,641)"/>
<path d="M0 0 C0.33 0.66 0.66 1.32 1 2 C1.33 1.34 1.66 0.68 2 0 C3.32 0.33 4.64 0.66 6 1 C1.25 5 1.25 5 -1 5 C-0.67 3.35 -0.34 1.7 0 0 Z " fill="#43488F" transform="translate(518,535)"/>
<path d="M0 0 C2 2 2 2 2 6 C0.02 6.99 0.02 6.99 -2 8 C-1.125 1.125 -1.125 1.125 0 0 Z " fill="#43498F" transform="translate(394,661)"/>
<path d="M0 0 C0.33 0 0.66 0 1 0 C1 2.97 1 5.94 1 9 C0.01 9.495 0.01 9.495 -1 10 C-2.15837626 5.94568308 -1.83691257 3.78187881 0 0 Z " fill="#646BAF" transform="translate(404,645)"/>
<path d="M0 0 C0.66 0.33 1.32 0.66 2 1 C-1.44615385 5.8 -1.44615385 5.8 -4.25 6.8125 C-5.11625 6.9053125 -5.11625 6.9053125 -6 7 C-4.60667426 3.63279613 -3.0210714 2.0140476 0 0 Z " fill="#3E3B68" transform="translate(420,637)"/>
<path d="M0 0 C0.99 0 1.98 0 3 0 C3 1.32 3 2.64 3 4 C0.29120665 5.35439668 -2.00933268 5.06501451 -5 5 C-4.360625 4.731875 -3.72125 4.46375 -3.0625 4.1875 C-0.66868314 3.11332248 -0.66868314 3.11332248 0 0 Z " fill="#2E2E66" transform="translate(127,641)"/>
<path d="M0 0 C1.32 0 2.64 0 4 0 C3.67 1.32 3.34 2.64 3 4 C1.68 4.33 0.36 4.66 -1 5 C-0.67 3.35 -0.34 1.7 0 0 Z " fill="#333577" transform="translate(163,636)"/>
<path d="M0 0 C0.66 0.33 1.32 0.66 2 1 C0.25 5.875 0.25 5.875 -2 7 C-2.33 5.35 -2.66 3.7 -3 2 C-2.01 1.34 -1.02 0.68 0 0 Z " fill="#3B4393" transform="translate(574,480)"/>
<path d="M0 0 C0.33 0 0.66 0 1 0 C0.67 2.97 0.34 5.94 0 9 C-0.99 9 -1.98 9 -3 9 C-2.01 6.03 -1.02 3.06 0 0 Z " fill="#4F5394" transform="translate(502,348)"/>
<path d="M0 0 C0.66 0 1.32 0 2 0 C2 0.99 2 1.98 2 3 C-1 5.1875 -1 5.1875 -4 7 C-2.92598892 4.08482708 -2.22189824 2.22189824 0 0 Z " fill="#43406A" transform="translate(181,638)"/>
<path d="M0 0 C1.98 0 3.96 0 6 0 C5.67 0.99 5.34 1.98 5 3 C3.35 3 1.7 3 0 3 C0 2.01 0 1.02 0 0 Z " fill="#201C50" transform="translate(212,637)"/>
<path d="M0 0 C1.98 0.495 1.98 0.495 4 1 C4 1.99 4 2.98 4 4 C2.35 4.33 0.7 4.66 -1 5 C-0.67 3.35 -0.34 1.7 0 0 Z " fill="#363C86" transform="translate(285,613)"/>
<path d="M0 0 C2 2 2 2 2 6 C0.68 6 -0.64 6 -2 6 C-1.49396008 3.83125748 -1.00016187 2.00032373 0 0 Z " fill="#4B4E90" transform="translate(495,364)"/>
</svg>
